<svg width="600" height="300" viewBox="0 0 333 177" fill="none" xmlns="http://www.w3.org/2000/svg">
	<rect x="22" y="26" width="12" height="12" fill="#D9D9D9" />
	<rect x="22" y="54" width="12" height="12" fill="#D9D9D9" />
	<rect x="22" y="82" width="12" height="12" fill="#D9D9D9" />
	<rect x="22" y="110" width="12" height="12" fill="#D9D9D9" />
	<rect x="22" y="138" width="12" height="12" fill="#D9D9D9" />
	<rect x="64" y="26" width="57" height="13" rx="6" fill="#FF6B00" />
	<rect x="162" y="137" width="57" height="13" rx="6" fill="#FF6B00" />
	<path d="M131.5 32C131.5 28.6863 134.186 26 137.5 26H155.5C158.814 26 161.5 28.6863 161.5 32V33C161.5 36.3137 158.814 39 155.5 39H137.5C134.186 39 131.5 36.3137 131.5 33V32Z" fill="#3C9EAC" />
	<path d="M116 144C116 140.686 118.686 138 122 138H140C143.314 138 146 140.686 146 144V145C146 148.314 143.314 151 140 151H122C118.686 151 116 148.314 116 145V144Z" fill="#3C9EAC" />
	<path d="M83 114C83 110.686 85.6863 108 89 108H107C110.314 108 113 110.686 113 114V115C113 118.314 110.314 121 107 121H89C85.6863 121 83 118.314 83 115V114Z" fill="#FF6B00" />
	<path d="M125 114C125 110.686 127.686 108 131 108H193C196.314 108 199 110.686 199 114V115C199 118.314 196.314 121 193 121H131C127.686 121 125 118.314 125 115V114Z" fill="#3C9EAC" />
	<path d="M211 114C211 110.686 213.686 108 217 108H279C282.314 108 285 110.686 285 114V115C285 118.314 282.314 121 279 121H217C213.686 121 211 118.314 211 115V114Z" fill="#FF6B00" />
	<rect x="64" y="54" width="38" height="13" rx="6" fill="#3C9EAC" />
	<rect x="64" y="138" width="38" height="13" rx="6" fill="#3A37E3" />
	<rect x="112" y="54" width="30" height="13" rx="6" fill="#FF6B00" />
	<rect x="206" y="80" width="30" height="13" rx="6" fill="#3A37E3" />
	<rect x="156" y="53" width="109" height="13" rx="6" fill="#3A37E3" />
	<rect x="83" y="81" width="109" height="13" rx="6" fill="#FF6B00" />
	<line x1="50.5" y1="59" x2="50.5" y2="144" stroke="white" />
	<line x1="68.5" y1="82" x2="68.5" y2="121" stroke="white" />
</svg>
