<svg xmlns="http://www.w3.org/2000/svg" version="1.1" xmlns:xlink="http://www.w3.org/1999/xlink" xmlns:svgjs="http://svgjs.dev/svgjs" viewBox="0 0 8.460464797713634 9.338346824522612"><g transform="matrix(1,0,0,1,0.7405340345990039,5.925712789923607)"><g><path d=" M 0.79425 0.2317499999999999 Q 0.9195 0.2984999999999999 0.987 0.41849999999999987 Q 1.0545 0.5384999999999999 1.0545 0.693 Q 1.0545 0.8459999999999999 0.9862500000000001 0.966 Q 0.918 1.0859999999999999 0.7927500000000001 1.15425 Q 0.6675 1.2225 0.5025000000000001 1.2225 L 0.084 1.2225 L 0.084 0.1649999999999998 L 0.5025000000000001 0.1649999999999998 Q 0.669 0.1649999999999998 0.79425 0.2317499999999999 M 0.6825 0.8924999999999998 Q 0.756 0.8219999999999998 0.756 0.693 Q 0.756 0.5624999999999999 0.6825 0.49124999999999985 Q 0.609 0.41999999999999993 0.48 0.41999999999999993 L 0.378 0.41999999999999993 L 0.378 0.9629999999999999 L 0.48 0.9629999999999999 Q 0.609 0.9629999999999999 0.6825 0.8924999999999998 M 1.2067280273437502 0.26024999999999987 Q 1.1594780273437502 0.2174999999999998 1.1594780273437502 0.1529999999999998 Q 1.1594780273437502 0.08699999999999997 1.2067280273437502 0.04349999999999987 Q 1.2539780273437502 0 1.33197802734375 0 Q 1.40847802734375 0 1.45572802734375 0.04349999999999987 Q 1.50297802734375 0.08699999999999997 1.50297802734375 0.1529999999999998 Q 1.50297802734375 0.2174999999999998 1.45572802734375 0.26024999999999987 Q 1.40847802734375 0.30299999999999994 1.33197802734375 0.30299999999999994 Q 1.2539780273437502 0.30299999999999994 1.2067280273437502 0.26024999999999987 M 1.47747802734375 0.3809999999999999 L 1.47747802734375 1.2225 L 1.1834780273437502 1.2225 L 1.1834780273437502 0.3809999999999999 L 1.47747802734375 0.3809999999999999 M 2.033953125 0.4049999999999999 Q 2.096953125 0.37049999999999994 2.1824531250000003 0.37049999999999994 Q 2.282953125 0.37049999999999994 2.364703125 0.42299999999999993 Q 2.446453125 0.4754999999999999 2.493703125 0.573 Q 2.540953125 0.6704999999999999 2.540953125 0.8009999999999999 Q 2.540953125 0.9315 2.493703125 1.02975 Q 2.446453125 1.128 2.364703125 1.1804999999999999 Q 2.282953125 1.2329999999999999 2.1824531250000003 1.2329999999999999 Q 2.096953125 1.2329999999999999 2.034703125 1.1985 Q 1.9724531250000004 1.164 1.9364531250000003 1.1055 L 1.9364531250000003 1.6244999999999998 L 1.6424531250000003 1.6244999999999998 L 1.6424531250000003 0.3809999999999999 L 1.9364531250000003 0.3809999999999999 L 1.9364531250000003 0.4979999999999999 Q 1.9709531250000003 0.4394999999999999 2.033953125 0.4049999999999999 M 2.198203125 0.67275 Q 2.153953125 0.6269999999999999 2.0894531250000004 0.6269999999999999 Q 2.024953125 0.6269999999999999 1.9807031250000002 0.6734999999999999 Q 1.9364531250000003 0.7199999999999999 1.9364531250000003 0.8009999999999999 Q 1.9364531250000003 0.8835 1.9807031250000002 0.9299999999999999 Q 2.024953125 0.9764999999999999 2.0894531250000004 0.9764999999999999 Q 2.153953125 0.9764999999999999 2.198203125 0.9292499999999999 Q 2.2424531250000004 0.8819999999999999 2.2424531250000004 0.8009999999999999 Q 2.2424531250000004 0.7184999999999999 2.198203125 0.67275 M 2.953442138671875 0.11249999999999982 L 2.953442138671875 1.2225 L 2.659442138671875 1.2225 L 2.659442138671875 0.11249999999999982 L 2.953442138671875 0.11249999999999982 M 3.284167236328125 1.1804999999999999 Q 3.184417236328125 1.128 3.127417236328125 1.0305 Q 3.070417236328125 0.9329999999999999 3.070417236328125 0.8009999999999999 Q 3.070417236328125 0.6704999999999999 3.128167236328125 0.573 Q 3.185917236328125 0.4754999999999999 3.285667236328125 0.42299999999999993 Q 3.385417236328125 0.37049999999999994 3.511417236328125 0.37049999999999994 Q 3.637417236328125 0.37049999999999994 3.737167236328125 0.42299999999999993 Q 3.8369172363281248 0.4754999999999999 3.894667236328125 0.573 Q 3.952417236328125 0.6704999999999999 3.952417236328125 0.8009999999999999 Q 3.952417236328125 0.9315 3.894667236328125 1.02975 Q 3.8369172363281248 1.128 3.736417236328125 1.1804999999999999 Q 3.635917236328125 1.2329999999999999 3.509917236328125 1.2329999999999999 Q 3.383917236328125 1.2329999999999999 3.284167236328125 1.1804999999999999 M 3.612667236328125 0.9322499999999999 Q 3.653917236328125 0.8864999999999998 3.653917236328125 0.8009999999999999 Q 3.653917236328125 0.7154999999999999 3.612667236328125 0.6704999999999999 Q 3.571417236328125 0.6255 3.511417236328125 0.6255 Q 3.451417236328125 0.6255 3.410917236328125 0.6704999999999999 Q 3.370417236328125 0.7154999999999999 3.370417236328125 0.8009999999999999 Q 3.370417236328125 0.8879999999999999 3.409417236328125 0.9329999999999999 Q 3.448417236328125 0.978 3.509917236328125 0.978 Q 3.571417236328125 0.978 3.612667236328125 0.9322499999999999 M 4.779646728515625 0.2317499999999999 Q 4.904896728515625 0.2984999999999999 4.9723967285156245 0.41849999999999987 Q 5.039896728515625 0.5384999999999999 5.039896728515625 0.693 Q 5.039896728515625 0.8459999999999999 4.9716467285156245 0.966 Q 4.903396728515625 1.0859999999999999 4.778146728515625 1.15425 Q 4.652896728515625 1.2225 4.487896728515625 1.2225 L 4.069396728515625 1.2225 L 4.069396728515625 0.1649999999999998 L 4.487896728515625 0.1649999999999998 Q 4.654396728515625 0.1649999999999998 4.779646728515625 0.2317499999999999 M 4.6678967285156245 0.8924999999999998 Q 4.741396728515625 0.8219999999999998 4.741396728515625 0.693 Q 4.741396728515625 0.5624999999999999 4.6678967285156245 0.49124999999999985 Q 4.594396728515624 0.41999999999999993 4.465396728515625 0.41999999999999993 L 4.3633967285156245 0.41999999999999993 L 4.3633967285156245 0.9629999999999999 L 4.465396728515625 0.9629999999999999 Q 4.594396728515624 0.9629999999999999 4.6678967285156245 0.8924999999999998 M 5.968374755859375 0.861 L 5.411874755859375 0.861 Q 5.416374755859375 0.9299999999999999 5.450124755859375 0.9637499999999999 Q 5.483874755859375 0.9974999999999999 5.536374755859375 0.9974999999999999 Q 5.609874755859376 0.9974999999999999 5.641374755859375 0.9315 L 5.954874755859375 0.9315 Q 5.9353747558593755 1.0185 5.879124755859375 1.0867499999999999 Q 5.822874755859376 1.1549999999999998 5.737374755859375 1.194 Q 5.651874755859375 1.2329999999999999 5.548374755859375 1.2329999999999999 Q 5.423874755859376 1.2329999999999999 5.3271247558593755 1.1804999999999999 Q 5.230374755859375 1.128 5.175624755859375 1.0305 Q 5.120874755859375 0.9329999999999999 5.120874755859375 0.8009999999999999 Q 5.120874755859375 0.6689999999999999 5.174874755859375 0.5722499999999999 Q 5.228874755859375 0.4754999999999999 5.3256247558593754 0.42299999999999993 Q 5.422374755859376 0.37049999999999994 5.548374755859375 0.37049999999999994 Q 5.672874755859375 0.37049999999999994 5.768874755859375 0.4214999999999999 Q 5.8648747558593755 0.4724999999999999 5.918874755859375 0.5677499999999999 Q 5.972874755859375 0.6629999999999999 5.972874755859375 0.7919999999999999 Q 5.972874755859375 0.8264999999999999 5.968374755859375 0.861 M 5.672874755859375 0.7184999999999999 Q 5.672874755859375 0.6644999999999999 5.636874755859376 0.6337499999999999 Q 5.600874755859375 0.6029999999999999 5.546874755859375 0.6029999999999999 Q 5.492874755859376 0.6029999999999999 5.458374755859375 0.6322499999999999 Q 5.423874755859376 0.6614999999999999 5.413374755859375 0.7184999999999999 L 5.672874755859375 0.7184999999999999 M 6.49341650390625 0.9449999999999998 L 6.6509165039062506 0.3809999999999999 L 6.96441650390625 0.3809999999999999 L 6.67491650390625 1.2225 L 6.30891650390625 1.2225 L 6.01941650390625 0.3809999999999999 L 6.33291650390625 0.3809999999999999 L 6.49341650390625 0.9449999999999998" fill="#102036" fill-rule="nonzero"></path></g><g><path d=" M 0.10227272727272727 2.0127818181818182 L 0.10227272727272727 2.4893727272727273 L 0.05454545454545454 2.4893727272727273 L 0.05454545454545454 2.0127818181818182 L 0.10227272727272727 2.0127818181818182 M 0.4943208451704545 2.151531818181818 Q 0.5365935724431818 2.1927818181818184 0.5365935724431818 2.271190909090909 L 0.5365935724431818 2.4893727272727273 L 0.48954811789772723 2.4893727272727273 L 0.48954811789772723 2.2766454545454544 Q 0.48954811789772723 2.2159636363636364 0.45920720880681815 2.183918181818182 Q 0.42886629971590906 2.1518727272727274 0.37636629971590907 2.1518727272727274 Q 0.32250266335227273 2.1518727272727274 0.29045720880681813 2.1859636363636366 Q 0.25841175426136365 2.2200545454545457 0.25841175426136365 2.286190909090909 L 0.25841175426136365 2.4893727272727273 L 0.2106844815340909 2.4893727272727273 L 0.2106844815340909 2.1171 L 0.25841175426136365 2.1171 L 0.25841175426136365 2.1805090909090907 Q 0.27613902698863635 2.146418181818182 0.30954811789772724 2.12835 Q 0.3429572088068181 2.1102818181818184 0.3852299360795454 2.1102818181818184 Q 0.45204811789772725 2.1102818181818184 0.4943208451704545 2.151531818181818 M 0.9259087579900567 2.151531818181818 Q 0.9681814852627839 2.1927818181818184 0.9681814852627839 2.271190909090909 L 0.9681814852627839 2.4893727272727273 L 0.9211360307173294 2.4893727272727273 L 0.9211360307173294 2.2766454545454544 Q 0.9211360307173294 2.2159636363636364 0.8907951216264203 2.183918181818182 Q 0.8604542125355112 2.1518727272727274 0.8079542125355113 2.1518727272727274 Q 0.7540905761718749 2.1518727272727274 0.7220451216264203 2.1859636363636366 Q 0.6899996670809658 2.2200545454545457 0.6899996670809658 2.286190909090909 L 0.6899996670809658 2.4893727272727273 L 0.6422723943536931 2.4893727272727273 L 0.6422723943536931 2.1171 L 0.6899996670809658 2.1171 L 0.6899996670809658 2.1805090909090907 Q 0.7077269398082385 2.146418181818182 0.7411360307173294 2.12835 Q 0.7745451216264203 2.1102818181818184 0.8168178488991475 2.1102818181818184 Q 0.8836360307173294 2.1102818181818184 0.9259087579900567 2.151531818181818 M 1.1423830344460226 2.4713045454545455 Q 1.1004512162642044 2.4477818181818183 1.076246670809659 2.4044863636363636 Q 1.0520421253551135 2.361190909090909 1.0520421253551135 2.3032363636363637 Q 1.0520421253551135 2.245281818181818 1.0765875799005682 2.2019863636363635 Q 1.1011330344460226 2.158690909090909 1.1434057617187499 2.135168181818182 Q 1.185678488991477 2.111645454545455 1.238178488991477 2.111645454545455 Q 1.2906784889914773 2.111645454545455 1.3332921253551135 2.135168181818182 Q 1.3759057617187498 2.158690909090909 1.4001103071732954 2.2019863636363635 Q 1.4243148526278409 2.245281818181818 1.4243148526278409 2.3032363636363637 Q 1.4243148526278409 2.360509090909091 1.3997693980823862 2.4041454545454544 Q 1.3752239435369318 2.4477818181818183 1.3322693980823863 2.4713045454545455 Q 1.2893148526278408 2.4948272727272727 1.2368148526278409 2.4948272727272727 Q 1.1843148526278409 2.4948272727272727 1.1423830344460226 2.4713045454545455 M 1.304996670809659 2.4365318181818183 Q 1.3363603071732952 2.419827272727273 1.3557921253551135 2.3860772727272725 Q 1.3752239435369318 2.3523272727272726 1.3752239435369318 2.3032363636363637 Q 1.3752239435369318 2.2541454545454545 1.3561330344460227 2.2203954545454545 Q 1.3370421253551135 2.1866454545454546 1.3056784889914772 2.169940909090909 Q 1.2743148526278407 2.153236363636364 1.237496670809659 2.153236363636364 Q 1.2006784889914772 2.153236363636364 1.1693148526278407 2.169940909090909 Q 1.1379512162642045 2.1866454545454546 1.1192012162642044 2.2203954545454545 Q 1.1004512162642044 2.2541454545454545 1.1004512162642044 2.3032363636363637 Q 1.1004512162642044 2.3523272727272726 1.1192012162642044 2.3860772727272725 Q 1.1379512162642045 2.419827272727273 1.1689739435369317 2.4365318181818183 Q 1.199996670809659 2.4532363636363637 1.2368148526278409 2.4532363636363637 Q 1.2736330344460227 2.4532363636363637 1.304996670809659 2.4365318181818183 M 1.6438799493963068 2.443009090909091 L 1.7693344948508523 2.1171 L 1.8197890403053978 2.1171 L 1.6704708584872159 2.4893727272727273 L 1.6166072221235797 2.4893727272727273 L 1.4672890403053978 2.1171 L 1.5184254039417613 2.1171 L 1.6438799493963068 2.443009090909091 M 1.8855824973366477 2.2019863636363635 Q 1.9084234064275567 2.158690909090909 1.9489915882457385 2.135168181818182 Q 1.9895597700639205 2.111645454545455 2.040696133700284 2.111645454545455 Q 2.093877951882102 2.111645454545455 2.1324006791548293 2.1361909090909093 Q 2.1709234064275567 2.1607363636363637 2.1879688609730112 2.1989181818181818 L 2.1879688609730112 2.1171 L 2.235696133700284 2.1171 L 2.235696133700284 2.4893727272727273 L 2.1879688609730112 2.4893727272727273 L 2.1879688609730112 2.4068727272727273 Q 2.1702415882457387 2.4450545454545454 2.1317188609730113 2.469940909090909 Q 2.093196133700284 2.4948272727272727 2.040014315518466 2.4948272727272727 Q 1.9895597700639205 2.4948272727272727 1.9489915882457385 2.4709636363636363 Q 1.9084234064275567 2.4471 1.8855824973366477 2.4034636363636364 Q 1.8627415882457385 2.359827272727273 1.8627415882457385 2.3025545454545453 Q 1.8627415882457385 2.245281818181818 1.8855824973366477 2.2019863636363635 M 2.16955977006392 2.2241454545454546 Q 2.1511506791548296 2.1900545454545455 2.119446133700284 2.1716454545454544 Q 2.0877415882457386 2.153236363636364 2.0495597700639205 2.153236363636364 Q 2.010014315518466 2.153236363636364 1.9786506791548295 2.1709636363636364 Q 1.947287042791193 2.188690909090909 1.9292188609730112 2.222440909090909 Q 1.9111506791548294 2.2561909090909094 1.9111506791548294 2.3025545454545453 Q 1.9111506791548294 2.3482363636363637 1.9292188609730112 2.3826681818181816 Q 1.947287042791193 2.4171 1.9786506791548295 2.435168181818182 Q 2.010014315518466 2.4532363636363637 2.0495597700639205 2.4532363636363637 Q 2.0877415882457386 2.4532363636363637 2.119446133700284 2.4348272727272726 Q 2.1511506791548296 2.416418181818182 2.16955977006392 2.382327272727273 Q 2.1879688609730112 2.3482363636363637 2.1879688609730112 2.3032363636363637 Q 2.1879688609730112 2.258236363636364 2.16955977006392 2.2241454545454546 M 2.4068241743607954 2.1573272727272728 L 2.4068241743607954 2.3884636363636362 Q 2.4068241743607954 2.4225545454545454 2.4197787198153407 2.435509090909091 Q 2.4327332652698863 2.4484636363636363 2.465460537997159 2.4484636363636363 L 2.5090969016335225 2.4484636363636363 L 2.5090969016335225 2.4893727272727273 L 2.4579605379971587 2.4893727272727273 Q 2.4075059925426134 2.4893727272727273 2.382960537997159 2.46585 Q 2.3584150834517046 2.442327272727273 2.3584150834517046 2.3884636363636362 L 2.3584150834517046 2.1573272727272728 L 2.306596901633523 2.1573272727272728 L 2.306596901633523 2.1171 L 2.3584150834517046 2.1171 L 2.3584150834517046 2.023690909090909 L 2.4068241743607954 2.023690909090909 L 2.4068241743607954 2.1171 L 2.5090969016335225 2.1171 L 2.5090969016335225 2.1573272727272728 L 2.4068241743607954 2.1573272727272728 M 2.9229728560014205 2.321645454545455 L 2.614109219637784 2.321645454545455 Q 2.6161546741832384 2.363918181818182 2.6345637650923295 2.393918181818182 Q 2.6529728560014205 2.423918181818182 2.6829728560014203 2.4392590909090908 Q 2.7129728560014206 2.4546 2.7484274014559658 2.4546 Q 2.794791037819602 2.4546 2.8264955832741476 2.4321 Q 2.858200128728693 2.4096 2.868427401455966 2.3714181818181816 L 2.918881946910511 2.3714181818181816 Q 2.9052455832741475 2.4259636363636363 2.860586492365057 2.4603954545454547 Q 2.8159274014559657 2.4948272727272727 2.7484274014559658 2.4948272727272727 Q 2.695927401455966 2.4948272727272727 2.654336492365057 2.4713045454545455 Q 2.6127455832741475 2.4477818181818183 2.5892228560014203 2.4044863636363636 Q 2.565700128728693 2.361190909090909 2.565700128728693 2.3032363636363637 Q 2.565700128728693 2.245281818181818 2.588881946910511 2.2016454545454547 Q 2.6120637650923295 2.1580090909090908 2.6536546741832385 2.134827272727273 Q 2.6952455832741475 2.111645454545455 2.7484274014559658 2.111645454545455 Q 2.801609219637784 2.111645454545455 2.8414955832741478 2.134827272727273 Q 2.881381946910511 2.1580090909090908 2.902859219637784 2.1972136363636365 Q 2.9243364923650566 2.236418181818182 2.9243364923650566 2.2841454545454547 Q 2.9243364923650566 2.308690909090909 2.9229728560014205 2.321645454545455 M 2.8592228560014203 2.2118727272727274 Q 2.841836492365057 2.1825545454545456 2.8118364923650567 2.1675545454545455 Q 2.781836492365057 2.1525545454545454 2.7463819469105113 2.1525545454545454 Q 2.693200128728693 2.1525545454545454 2.655700128728693 2.1866454545454546 Q 2.6182001287286933 2.2207363636363637 2.614109219637784 2.2827818181818182 L 2.8759274014559657 2.2827818181818182 Q 2.876609219637784 2.2411909090909092 2.8592228560014203 2.2118727272727274 M 3.4772883744673293 2.0127818181818182 L 3.4772883744673293 2.0523272727272728 L 3.345015647194602 2.0523272727272728 L 3.345015647194602 2.4893727272727273 L 3.297288374467329 2.4893727272727273 L 3.297288374467329 2.0523272727272728 L 3.164333829012784 2.0523272727272728 L 3.164333829012784 2.0127818181818182 L 3.4772883744673293 2.0127818181818182 M 3.6215062366832385 2.4713045454545455 Q 3.57957441850142 2.4477818181818183 3.555369873046875 2.4044863636363636 Q 3.5311653275923294 2.361190909090909 3.5311653275923294 2.3032363636363637 Q 3.5311653275923294 2.245281818181818 3.555710782137784 2.2019863636363635 Q 3.5802562366832387 2.158690909090909 3.6225289639559657 2.135168181818182 Q 3.664801691228693 2.111645454545455 3.717301691228693 2.111645454545455 Q 3.769801691228693 2.111645454545455 3.8124153275923294 2.135168181818182 Q 3.8550289639559656 2.158690909090909 3.8792335094105113 2.2019863636363635 Q 3.9034380548650565 2.245281818181818 3.9034380548650565 2.3032363636363637 Q 3.9034380548650565 2.360509090909091 3.878892600319602 2.4041454545454544 Q 3.8543471457741476 2.4477818181818183 3.811392600319602 2.4713045454545455 Q 3.7684380548650567 2.4948272727272727 3.7159380548650565 2.4948272727272727 Q 3.6634380548650567 2.4948272727272727 3.6215062366832385 2.4713045454545455 M 3.784119873046875 2.4365318181818183 Q 3.815483509410511 2.419827272727273 3.8349153275923293 2.3860772727272725 Q 3.8543471457741476 2.3523272727272726 3.8543471457741476 2.3032363636363637 Q 3.8543471457741476 2.2541454545454545 3.8352562366832386 2.2203954545454545 Q 3.8161653275923295 2.1866454545454546 3.784801691228693 2.169940909090909 Q 3.7534380548650566 2.153236363636364 3.716619873046875 2.153236363636364 Q 3.679801691228693 2.153236363636364 3.6484380548650566 2.169940909090909 Q 3.6170744185014203 2.1866454545454546 3.5983244185014205 2.2203954545454545 Q 3.57957441850142 2.2541454545454545 3.57957441850142 2.3032363636363637 Q 3.57957441850142 2.3523272727272726 3.5983244185014205 2.3860772727272725 Q 3.6170744185014203 2.419827272727273 3.6480971457741473 2.4365318181818183 Q 3.679119873046875 2.4532363636363637 3.7159380548650565 2.4532363636363637 Q 3.7527562366832385 2.4532363636363637 3.784119873046875 2.4365318181818183 M 4.238230424360795 2.1361909090909093 Q 4.277094060724432 2.1607363636363637 4.294139515269887 2.1982363636363638 L 4.294139515269887 2.1171 L 4.341866787997159 2.1171 L 4.341866787997159 2.498918181818182 Q 4.341866787997159 2.5500545454545454 4.319707697088068 2.5896 Q 4.297548606178977 2.6291454545454545 4.258003151633522 2.650622727272727 Q 4.218457697088068 2.6721 4.168003151633522 2.6721 Q 4.0964122425426135 2.6721 4.04902587890625 2.6380090909090907 Q 4.001639515269886 2.603918181818182 3.990048606178977 2.545281818181818 L 4.037094060724431 2.545281818181818 Q 4.049366787997159 2.5841454545454545 4.083798606178977 2.607327272727273 Q 4.118230424360795 2.630509090909091 4.168003151633522 2.630509090909091 Q 4.204139515269886 2.630509090909091 4.23277587890625 2.615168181818182 Q 4.2614122425426135 2.5998272727272727 4.27777587890625 2.569827272727273 Q 4.294139515269887 2.5398272727272726 4.294139515269887 2.498918181818182 L 4.294139515269887 2.4068727272727273 Q 4.276412242542613 2.4450545454545454 4.237889515269886 2.469940909090909 Q 4.199366787997159 2.4948272727272727 4.146866787997159 2.4948272727272727 Q 4.095730424360795 2.4948272727272727 4.055162242542614 2.4709636363636363 Q 4.0145940607244315 2.4471 3.9917531516335227 2.4034636363636364 Q 3.9689122425426135 2.359827272727273 3.9689122425426135 2.3025545454545453 Q 3.9689122425426135 2.245281818181818 3.9917531516335227 2.2019863636363635 Q 4.0145940607244315 2.158690909090909 4.055162242542614 2.135168181818182 Q 4.095730424360795 2.111645454545455 4.146866787997159 2.111645454545455 Q 4.199366787997159 2.111645454545455 4.238230424360795 2.1361909090909093 M 4.275730424360796 2.2241454545454546 Q 4.257321333451705 2.1900545454545455 4.225616787997159 2.1716454545454544 Q 4.193912242542614 2.153236363636364 4.1557304243607955 2.153236363636364 Q 4.1161849698153405 2.153236363636364 4.084821333451704 2.1709636363636364 Q 4.053457697088068 2.188690909090909 4.035389515269887 2.222440909090909 Q 4.017321333451704 2.2561909090909094 4.017321333451704 2.3025545454545453 Q 4.017321333451704 2.3482363636363637 4.035389515269887 2.3826681818181816 Q 4.053457697088068 2.4171 4.084821333451704 2.435168181818182 Q 4.1161849698153405 2.4532363636363637 4.1557304243607955 2.4532363636363637 Q 4.193912242542614 2.4532363636363637 4.225616787997159 2.4348272727272726 Q 4.257321333451705 2.416418181818182 4.275730424360796 2.382327272727273 Q 4.294139515269887 2.3482363636363637 4.294139515269887 2.3032363636363637 Q 4.294139515269887 2.258236363636364 4.275730424360796 2.2241454545454546 M 4.786403919566761 2.321645454545455 L 4.477540283203125 2.321645454545455 Q 4.47958573774858 2.363918181818182 4.497994828657671 2.393918181818182 Q 4.516403919566762 2.423918181818182 4.546403919566762 2.4392590909090908 Q 4.576403919566761 2.4546 4.6118584650213075 2.4546 Q 4.658222101384943 2.4546 4.689926646839489 2.4321 Q 4.721631192294034 2.4096 4.731858465021308 2.3714181818181816 L 4.782313010475852 2.3714181818181816 Q 4.768676646839489 2.4259636363636363 4.724017555930398 2.4603954545454547 Q 4.679358465021307 2.4948272727272727 4.6118584650213075 2.4948272727272727 Q 4.559358465021307 2.4948272727272727 4.517767555930398 2.4713045454545455 Q 4.476176646839489 2.4477818181818183 4.452653919566762 2.4044863636363636 Q 4.429131192294035 2.361190909090909 4.429131192294035 2.3032363636363637 Q 4.429131192294035 2.245281818181818 4.452313010475852 2.2016454545454547 Q 4.475494828657671 2.1580090909090908 4.51708573774858 2.134827272727273 Q 4.558676646839489 2.111645454545455 4.6118584650213075 2.111645454545455 Q 4.665040283203125 2.111645454545455 4.704926646839489 2.134827272727273 Q 4.744813010475853 2.1580090909090908 4.7662902832031255 2.1972136363636365 Q 4.787767555930398 2.236418181818182 4.787767555930398 2.2841454545454547 Q 4.787767555930398 2.308690909090909 4.786403919566761 2.321645454545455 M 4.722653919566762 2.2118727272727274 Q 4.705267555930398 2.1825545454545456 4.6752675559303984 2.1675545454545455 Q 4.645267555930398 2.1525545454545454 4.609813010475852 2.1525545454545454 Q 4.556631192294034 2.1525545454545454 4.519131192294035 2.1866454545454546 Q 4.481631192294034 2.2207363636363637 4.477540283203125 2.2827818181818182 L 4.739358465021307 2.2827818181818182 Q 4.740040283203125 2.2411909090909092 4.722653919566762 2.2118727272727274 M 4.937092063210227 2.1573272727272728 L 4.937092063210227 2.3884636363636362 Q 4.937092063210227 2.4225545454545454 4.950046608664773 2.435509090909091 Q 4.963001154119318 2.4484636363636363 4.995728426846591 2.4484636363636363 L 5.039364790482955 2.4484636363636363 L 5.039364790482955 2.4893727272727273 L 4.988228426846591 2.4893727272727273 Q 4.9377738813920455 2.4893727272727273 4.913228426846591 2.46585 Q 4.888682972301137 2.442327272727273 4.888682972301137 2.3884636363636362 L 4.888682972301137 2.1573272727272728 L 4.836864790482955 2.1573272727272728 L 4.836864790482955 2.1171 L 4.888682972301137 2.1171 L 4.888682972301137 2.023690909090909 L 4.937092063210227 2.023690909090909 L 4.937092063210227 2.1171 L 5.039364790482955 2.1171 L 5.039364790482955 2.1573272727272728 L 4.937092063210227 2.1573272727272728 M 5.371081653941761 2.128009090909091 Q 5.404831653941762 2.1457363636363636 5.42426347212358 2.1822136363636364 Q 5.443695290305398 2.2186909090909093 5.443695290305398 2.271190909090909 L 5.443695290305398 2.4893727272727273 L 5.396649835759943 2.4893727272727273 L 5.396649835759943 2.2766454545454544 Q 5.396649835759943 2.2159636363636364 5.366308926669034 2.183918181818182 Q 5.335968017578125 2.1518727272727274 5.283468017578125 2.1518727272727274 Q 5.229604381214489 2.1518727272727274 5.197558926669035 2.1859636363636366 Q 5.16551347212358 2.2200545454545457 5.16551347212358 2.286190909090909 L 5.16551347212358 2.4893727272727273 L 5.117786199396307 2.4893727272727273 L 5.117786199396307 1.9848272727272729 L 5.16551347212358 1.9848272727272729 L 5.16551347212358 2.1805090909090907 Q 5.183240744850853 2.1471 5.217672563032671 2.128690909090909 Q 5.2521043812144885 2.1102818181818184 5.295058926669034 2.1102818181818184 Q 5.337331653941762 2.1102818181818184 5.371081653941761 2.128009090909091 M 5.884828657670455 2.321645454545455 L 5.575965021306819 2.321645454545455 Q 5.578010475852273 2.363918181818182 5.596419566761364 2.393918181818182 Q 5.614828657670455 2.423918181818182 5.644828657670455 2.4392590909090908 Q 5.674828657670455 2.4546 5.710283203125001 2.4546 Q 5.756646839488637 2.4546 5.788351384943183 2.4321 Q 5.820055930397728 2.4096 5.830283203125001 2.3714181818181816 L 5.880737748579546 2.3714181818181816 Q 5.867101384943182 2.4259636363636363 5.822442294034091 2.4603954545454547 Q 5.777783203125001 2.4948272727272727 5.710283203125001 2.4948272727272727 Q 5.657783203125001 2.4948272727272727 5.616192294034091 2.4713045454545455 Q 5.574601384943183 2.4477818181818183 5.551078657670455 2.4044863636363636 Q 5.527555930397728 2.361190909090909 5.527555930397728 2.3032363636363637 Q 5.527555930397728 2.245281818181818 5.550737748579546 2.2016454545454547 Q 5.573919566761364 2.1580090909090908 5.615510475852274 2.134827272727273 Q 5.657101384943182 2.111645454545455 5.710283203125001 2.111645454545455 Q 5.763465021306819 2.111645454545455 5.803351384943182 2.134827272727273 Q 5.843237748579546 2.1580090909090908 5.864715021306819 2.1972136363636365 Q 5.886192294034092 2.236418181818182 5.886192294034092 2.2841454545454547 Q 5.886192294034092 2.308690909090909 5.884828657670455 2.321645454545455 M 5.821078657670455 2.2118727272727274 Q 5.803692294034091 2.1825545454545456 5.773692294034092 2.1675545454545455 Q 5.7436922940340915 2.1525545454545454 5.7082377485795455 2.1525545454545454 Q 5.655055930397728 2.1525545454545454 5.617555930397728 2.1866454545454546 Q 5.5800559303977275 2.2207363636363637 5.575965021306819 2.2827818181818182 L 5.837783203125 2.2827818181818182 Q 5.838465021306819 2.2411909090909092 5.821078657670455 2.2118727272727274 M 6.069266801313921 2.1293727272727274 Q 6.101653164950284 2.1102818181818184 6.148698619495739 2.1102818181818184 L 6.148698619495739 2.1600545454545457 L 6.1357440740411935 2.1600545454545457 Q 6.083925892223012 2.1600545454545457 6.0525622558593755 2.188009090909091 Q 6.021198619495739 2.2159636363636364 6.021198619495739 2.281418181818182 L 6.021198619495739 2.4893727272727273 L 5.973471346768466 2.4893727272727273 L 5.973471346768466 2.1171 L 6.021198619495739 2.1171 L 6.021198619495739 2.1832363636363636 Q 6.036880437677557 2.1484636363636365 6.069266801313921 2.1293727272727274" fill="#3682ae" fill-rule="nonzero"></path></g><g clip-path="url(#SvgjsClipPath1002)"><g clip-path="url(#SvgjsClipPath1000d08e1f81-72a2-4a83-bcbe-4f9dfe505ecd)"><path d=" M 2.7720957187914737 -3.8936091184592225 L 0.28894360184938833 -3.8936091184592225 C 0.12149242843659458 -3.5833408455220024 0.02293668590496119 -3.2406036207790128 0 -2.8887795097398974 L 3.1444996746545533 -2.8887795097398974 C 3.1137231552592617 -3.2512827539424656 2.9850005837830866 -3.5986051953219595 2.7720957187914737 -3.8936091184592225 Z" fill="#3682ae" transform="matrix(1,0,0,1,0,0)" fill-rule="nonzero"></path></g><g clip-path="url(#SvgjsClipPath1000d08e1f81-72a2-4a83-bcbe-4f9dfe505ecd)"><path d=" M 0.5346420697708929 -4.260504140063975 L 2.4338471553300325 -4.260504140063975 C 2.070567228257999 -4.568518982900087 1.609746174018528 -4.737581059990271 1.1334632236513191 -4.737577846835319 C 1.1012359582400926 -4.737577846835319 1.0695595862546985 -4.734272486280322 1.0373323208434684 -4.732619806002824 C 0.8487046014985457 -4.599298132156873 0.6795226006270982 -4.44040610503706 0.5346420697708929 -4.260504140063975 Z" fill="#3682ae" transform="matrix(1,0,0,1,0,0)" fill-rule="nonzero"></path></g><g clip-path="url(#SvgjsClipPath1000d08e1f81-72a2-4a83-bcbe-4f9dfe505ecd)"><path d=" M 0.5528215528233769 -1.1504353045239801 C 0.6936346324174384 -0.9802891499529869 0.8565845083201873 -0.8297527381610799 1.0373323208434684 -0.702834396034703 C 1.0695595862546985 -0.7011817157571985 1.1012359582400926 -0.6978763552022 1.1334632236513191 -0.6978763552022 C 1.596670208645702 -0.6978084731449723 2.0456961180155475 -0.8576675347039426 2.4046498037608828 -1.1504353045239801 Z" fill="#3682ae" transform="matrix(1,0,0,1,0,0)" fill-rule="nonzero"></path></g><g clip-path="url(#SvgjsClipPath1000d08e1f81-72a2-4a83-bcbe-4f9dfe505ecd)"><path d=" M 2.8161671928581096 -4.260504140063975 L 4.3831835426399754 -4.260504140063975 C 3.915509087475356 -4.845466752157289 3.207019240369714 -5.185773007234359 2.4580864660666837 -5.185178755324603 C 2.116648712716748 -5.18536887435283 1.7789235213015129 -5.114352771602462 1.4664782995673504 -4.976665593646826 C 1.9853349026474771 -4.900229124923123 2.461995024310431 -4.647307427714208 2.8161671928581096 -4.260504140063975 Z" fill="#102036" transform="matrix(1,0,0,1,0,0)" fill-rule="nonzero"></path></g><g clip-path="url(#SvgjsClipPath1000d08e1f81-72a2-4a83-bcbe-4f9dfe505ecd)"><path d=" M 2.793580562398956 -1.1504353045239801 C 2.4421840366973195 -0.7772528721258336 1.9752059745302046 -0.5334771256246285 1.4681309798448476 -0.45851316167777956 C 1.780594105109146 -0.32091292279123174 2.1183201234799998 -0.24999045893335392 2.459739146344181 -0.2502754467129167 C 3.1978972386031073 -0.24951261742367148 3.8974745592987516 -0.5798910399718453 4.3658303997262315 -1.1504353045239801 Z" fill="#102036" transform="matrix(1,0,0,1,0,0)" fill-rule="nonzero"></path></g><g clip-path="url(#SvgjsClipPath1000d08e1f81-72a2-4a83-bcbe-4f9dfe505ecd)"><path d=" M 3.0902366722100085 -3.8936091184592225 C 3.2747320709700265 -3.5885806508807523 3.3845865813353884 -3.244294350354254 3.4108566460447873 -2.8887795097398974 L 4.9175501656979455 -2.8887795097398974 C 4.8946134797929854 -3.2406036207790128 4.796057737261349 -3.5833408455220024 4.628606563848557 -3.8936091184592225 Z" fill="#3682ae" transform="matrix(1,0,0,1,0,0)" fill-rule="nonzero"></path></g><g clip-path="url(#SvgjsClipPath1000d08e1f81-72a2-4a83-bcbe-4f9dfe505ecd)"><path d=" M 4.916172932133366 -2.521884488135142 L 3.4097548591931295 -2.521884488135142 C 3.3792997718707456 -2.1653412736433153 3.2648001418964947 -1.8210872336465247 3.0756379964254372 -1.517330326128735 L 4.613456994638156 -1.517330326128735 C 4.785981681499592 -1.8262820609591746 4.889272538374905 -2.1690498089339467 4.916172932133366 -2.5218844881351457 Z" fill="#3682ae" transform="matrix(1,0,0,1,0,0)" fill-rule="nonzero"></path></g><g clip-path="url(#SvgjsClipPath1000d08e1f81-72a2-4a83-bcbe-4f9dfe505ecd)"><path d=" M 0.0011017868516648504 -2.521884488135142 C 0.028476020065791127 -2.1691015058267547 0.13183659452421903 -1.8264142194177615 0.3040931710597975 -1.517330326128735 L 2.7555689160164833 -1.517330326128735 C 2.974360082075734 -1.810517286709508 3.10902172520228 -2.1578376632883662 3.1450505680803924 -2.5218844881351457 Z" fill="#3682ae" transform="matrix(1,0,0,1,0,0)" fill-rule="nonzero"></path></g></g></g><defs><clipPath id="SvgjsClipPath1002"><path d=" M 0 -5.185178755324603 h 4.917825612410865 v 4.935178755324603 h -4.917825612410865 Z"></path></clipPath><clipPath id="SvgjsClipPath1000d08e1f81-72a2-4a83-bcbe-4f9dfe505ecd"><path d=" M 0 -5.185178755324603 L 4.917825612410865 -5.185178755324603 L 4.917825612410865 -0.25 L 0 -0.25 Z"></path></clipPath></defs></svg>