<svg width="619" height="963" viewBox="0 0 619 963" fill="none" xmlns="http://www.w3.org/2000/svg">

	<mask id="path-1-inside-1_330_16" fill="white">
		<path d="M0 58C0 25.9675 25.9675 0 58 0H560.373C592.405 0 618.373 25.9675 618.373 58V963H0V58Z" />
	</mask>
	<path d="M0 58C0 25.9675 25.9675 0 58 0H560.373C592.405 0 618.373 25.9675 618.373 58V963H0V58Z" fill="white" />
	<path d="M-20 58C-20 14.9218 14.9218 -20 58 -20H560.373C603.451 -20 638.373 14.9218 638.373 58H598.373C598.373 37.0132 581.359 20 560.373 20H58C37.0132 20 20 37.0132 20 58H-20ZM618.373 963H0H618.373ZM-20 963V58C-20 14.9218 14.9218 -20 58 -20V20C37.0132 20 20 37.0132 20 58V963H-20ZM560.373 -20C603.451 -20 638.373 14.9218 638.373 58V963H598.373V58C598.373 37.0132 581.359 20 560.373 20V-20Z" fill="#E9E9E9" mask="url(#path-1-inside-1_330_16)" />
	<path d="M148.888 347.872L141.868 373H135.928L131.212 355.108L126.28 373L120.376 373.036L113.608 347.872H119.008L123.436 367.384L128.548 347.872H134.164L138.988 367.276L143.452 347.872H148.888ZM170.719 362.596C170.719 363.316 170.671 363.964 170.575 364.54H155.995C156.115 365.98 156.619 367.108 157.507 367.924C158.395 368.74 159.487 369.148 160.783 369.148C162.655 369.148 163.987 368.344 164.779 366.736H170.215C169.639 368.656 168.535 370.24 166.903 371.488C165.271 372.712 163.267 373.324 160.891 373.324C158.971 373.324 157.243 372.904 155.707 372.064C154.195 371.2 153.007 369.988 152.143 368.428C151.303 366.868 150.883 365.068 150.883 363.028C150.883 360.964 151.303 359.152 152.143 357.592C152.983 356.032 154.159 354.832 155.671 353.992C157.183 353.152 158.923 352.732 160.891 352.732C162.787 352.732 164.479 353.14 165.967 353.956C167.479 354.772 168.643 355.936 169.459 357.448C170.299 358.936 170.719 360.652 170.719 362.596ZM165.499 361.156C165.475 359.86 165.007 358.828 164.095 358.06C163.183 357.268 162.067 356.872 160.747 356.872C159.499 356.872 158.443 357.256 157.579 358.024C156.739 358.768 156.223 359.812 156.031 361.156H165.499ZM179.438 355.972C180.086 355.012 180.974 354.232 182.102 353.632C183.254 353.032 184.562 352.732 186.026 352.732C187.73 352.732 189.266 353.152 190.634 353.992C192.026 354.832 193.118 356.032 193.91 357.592C194.726 359.128 195.134 360.916 195.134 362.956C195.134 364.996 194.726 366.808 193.91 368.392C193.118 369.952 192.026 371.164 190.634 372.028C189.266 372.892 187.73 373.324 186.026 373.324C184.538 373.324 183.23 373.036 182.102 372.46C180.998 371.86 180.11 371.092 179.438 370.156V373H174.398V346.36H179.438V355.972ZM189.986 362.956C189.986 361.756 189.734 360.724 189.23 359.86C188.75 358.972 188.102 358.3 187.286 357.844C186.494 357.388 185.63 357.16 184.694 357.16C183.782 357.16 182.918 357.4 182.102 357.88C181.31 358.336 180.662 359.008 180.158 359.896C179.678 360.784 179.438 361.828 179.438 363.028C179.438 364.228 179.678 365.272 180.158 366.16C180.662 367.048 181.31 367.732 182.102 368.212C182.918 368.668 183.782 368.896 184.694 368.896C185.63 368.896 186.494 368.656 187.286 368.176C188.102 367.696 188.75 367.012 189.23 366.124C189.734 365.236 189.986 364.18 189.986 362.956ZM206.429 373.324C204.797 373.324 203.333 373.036 202.037 372.46C200.741 371.86 199.709 371.056 198.941 370.048C198.197 369.04 197.789 367.924 197.717 366.7H202.793C202.889 367.468 203.261 368.104 203.909 368.608C204.581 369.112 205.409 369.364 206.393 369.364C207.353 369.364 208.097 369.172 208.625 368.788C209.177 368.404 209.453 367.912 209.453 367.312C209.453 366.664 209.117 366.184 208.445 365.872C207.797 365.536 206.753 365.176 205.312 364.792C203.825 364.432 202.601 364.06 201.641 363.676C200.705 363.292 199.889 362.704 199.193 361.912C198.521 361.12 198.185 360.052 198.185 358.708C198.185 357.604 198.497 356.596 199.121 355.684C199.769 354.772 200.681 354.052 201.857 353.524C203.057 352.996 204.461 352.732 206.069 352.732C208.445 352.732 210.341 353.332 211.757 354.532C213.173 355.708 213.953 357.304 214.097 359.32H209.273C209.201 358.528 208.865 357.904 208.265 357.448C207.689 356.968 206.909 356.728 205.925 356.728C205.013 356.728 204.305 356.896 203.801 357.232C203.321 357.568 203.081 358.036 203.081 358.636C203.081 359.308 203.417 359.824 204.089 360.184C204.761 360.52 205.805 360.868 207.221 361.228C208.661 361.588 209.849 361.96 210.785 362.344C211.721 362.728 212.525 363.328 213.197 364.144C213.893 364.936 214.253 365.992 214.277 367.312C214.277 368.464 213.953 369.496 213.305 370.408C212.681 371.32 211.769 372.04 210.569 372.568C209.393 373.072 208.013 373.324 206.429 373.324ZM220.97 350.68C220.082 350.68 219.338 350.404 218.738 349.852C218.162 349.276 217.874 348.568 217.874 347.728C217.874 346.888 218.162 346.192 218.738 345.64C219.338 345.064 220.082 344.776 220.97 344.776C221.858 344.776 222.59 345.064 223.166 345.64C223.766 346.192 224.066 346.888 224.066 347.728C224.066 348.568 223.766 349.276 223.166 349.852C222.59 350.404 221.858 350.68 220.97 350.68ZM223.454 353.056V373H218.414V353.056H223.454ZM234.301 357.196V366.844C234.301 367.516 234.457 368.008 234.769 368.32C235.105 368.608 235.657 368.752 236.425 368.752H238.765V373H235.597C231.349 373 229.225 370.936 229.225 366.808V357.196H226.849V353.056H229.225V348.124H234.301V353.056H238.765V357.196H234.301ZM260.93 362.596C260.93 363.316 260.882 363.964 260.786 364.54H246.206C246.326 365.98 246.83 367.108 247.718 367.924C248.606 368.74 249.698 369.148 250.994 369.148C252.866 369.148 254.198 368.344 254.99 366.736H260.426C259.85 368.656 258.746 370.24 257.114 371.488C255.482 372.712 253.478 373.324 251.102 373.324C249.182 373.324 247.454 372.904 245.918 372.064C244.406 371.2 243.218 369.988 242.354 368.428C241.514 366.868 241.094 365.068 241.094 363.028C241.094 360.964 241.514 359.152 242.354 357.592C243.194 356.032 244.37 354.832 245.882 353.992C247.394 353.152 249.134 352.732 251.102 352.732C252.998 352.732 254.69 353.14 256.178 353.956C257.69 354.772 258.854 355.936 259.67 357.448C260.51 358.936 260.93 360.652 260.93 362.596ZM255.71 361.156C255.686 359.86 255.218 358.828 254.306 358.06C253.394 357.268 252.278 356.872 250.958 356.872C249.71 356.872 248.654 357.256 247.79 358.024C246.95 358.768 246.434 359.812 246.242 361.156H255.71ZM272.241 373.324C270.609 373.324 269.145 373.036 267.849 372.46C266.553 371.86 265.521 371.056 264.753 370.048C264.009 369.04 263.601 367.924 263.529 366.7H268.605C268.701 367.468 269.073 368.104 269.721 368.608C270.393 369.112 271.221 369.364 272.205 369.364C273.165 369.364 273.909 369.172 274.437 368.788C274.989 368.404 275.265 367.912 275.265 367.312C275.265 366.664 274.929 366.184 274.257 365.872C273.609 365.536 272.565 365.176 271.125 364.792C269.637 364.432 268.413 364.06 267.453 363.676C266.517 363.292 265.701 362.704 265.005 361.912C264.333 361.12 263.997 360.052 263.997 358.708C263.997 357.604 264.309 356.596 264.933 355.684C265.581 354.772 266.493 354.052 267.669 353.524C268.869 352.996 270.273 352.732 271.881 352.732C274.257 352.732 276.153 353.332 277.569 354.532C278.985 355.708 279.765 357.304 279.909 359.32H275.085C275.013 358.528 274.677 357.904 274.077 357.448C273.501 356.968 272.721 356.728 271.737 356.728C270.825 356.728 270.117 356.896 269.613 357.232C269.133 357.568 268.893 358.036 268.893 358.636C268.893 359.308 269.229 359.824 269.901 360.184C270.573 360.52 271.617 360.868 273.033 361.228C274.473 361.588 275.661 361.96 276.597 362.344C277.533 362.728 278.337 363.328 279.009 364.144C279.705 364.936 280.065 365.992 280.089 367.312C280.089 368.464 279.765 369.496 279.117 370.408C278.493 371.32 277.581 372.04 276.381 372.568C275.205 373.072 273.825 373.324 272.241 373.324ZM298.672 357.196V366.844C298.672 367.516 298.828 368.008 299.14 368.32C299.476 368.608 300.028 368.752 300.796 368.752H303.136V373H299.968C295.72 373 293.596 370.936 293.596 366.808V357.196H291.22V353.056H293.596V348.124H298.672V353.056H303.136V357.196H298.672ZM317.993 352.768C319.505 352.768 320.849 353.104 322.025 353.776C323.201 354.424 324.113 355.396 324.761 356.692C325.433 357.964 325.769 359.5 325.769 361.3V373H320.729V361.984C320.729 360.4 320.333 359.188 319.541 358.348C318.749 357.484 317.669 357.052 316.301 357.052C314.909 357.052 313.805 357.484 312.989 358.348C312.197 359.188 311.801 360.4 311.801 361.984V373H306.761V346.36H311.801V355.54C312.449 354.676 313.313 354.004 314.393 353.524C315.473 353.02 316.673 352.768 317.993 352.768ZM329.266 362.956C329.266 360.94 329.662 359.152 330.454 357.592C331.27 356.032 332.362 354.832 333.73 353.992C335.122 353.152 336.67 352.732 338.374 352.732C339.862 352.732 341.158 353.032 342.262 353.632C343.39 354.232 344.29 354.988 344.962 355.9V353.056H350.038V373H344.962V370.084C344.314 371.02 343.414 371.8 342.262 372.424C341.134 373.024 339.826 373.324 338.338 373.324C336.658 373.324 335.122 372.892 333.73 372.028C332.362 371.164 331.27 369.952 330.454 368.392C329.662 366.808 329.266 364.996 329.266 362.956ZM344.962 363.028C344.962 361.804 344.722 360.76 344.242 359.896C343.762 359.008 343.114 358.336 342.298 357.88C341.482 357.4 340.606 357.16 339.67 357.16C338.734 357.16 337.87 357.388 337.078 357.844C336.286 358.3 335.638 358.972 335.134 359.86C334.654 360.724 334.414 361.756 334.414 362.956C334.414 364.156 334.654 365.212 335.134 366.124C335.638 367.012 336.286 367.696 337.078 368.176C337.894 368.656 338.758 368.896 339.67 368.896C340.606 368.896 341.482 368.668 342.298 368.212C343.114 367.732 343.762 367.06 344.242 366.196C344.722 365.308 344.962 364.252 344.962 363.028ZM360.829 357.196V366.844C360.829 367.516 360.985 368.008 361.297 368.32C361.633 368.608 362.185 368.752 362.953 368.752H365.293V373H362.125C357.877 373 355.753 370.936 355.753 366.808V357.196H353.377V353.056H355.753V348.124H360.829V353.056H365.293V357.196H360.829ZM385.128 373.324C383.496 373.324 382.032 373.036 380.736 372.46C379.44 371.86 378.408 371.056 377.64 370.048C376.896 369.04 376.488 367.924 376.416 366.7H381.492C381.588 367.468 381.96 368.104 382.608 368.608C383.28 369.112 384.108 369.364 385.092 369.364C386.052 369.364 386.796 369.172 387.324 368.788C387.876 368.404 388.152 367.912 388.152 367.312C388.152 366.664 387.816 366.184 387.144 365.872C386.496 365.536 385.452 365.176 384.012 364.792C382.524 364.432 381.3 364.06 380.34 363.676C379.404 363.292 378.588 362.704 377.892 361.912C377.22 361.12 376.884 360.052 376.884 358.708C376.884 357.604 377.196 356.596 377.82 355.684C378.468 354.772 379.38 354.052 380.556 353.524C381.756 352.996 383.16 352.732 384.768 352.732C387.144 352.732 389.04 353.332 390.456 354.532C391.872 355.708 392.652 357.304 392.796 359.32H387.972C387.9 358.528 387.564 357.904 386.964 357.448C386.388 356.968 385.608 356.728 384.624 356.728C383.712 356.728 383.004 356.896 382.5 357.232C382.02 357.568 381.78 358.036 381.78 358.636C381.78 359.308 382.116 359.824 382.788 360.184C383.46 360.52 384.504 360.868 385.92 361.228C387.36 361.588 388.548 361.96 389.484 362.344C390.42 362.728 391.224 363.328 391.896 364.144C392.592 364.936 392.952 365.992 392.976 367.312C392.976 368.464 392.652 369.496 392.004 370.408C391.38 371.32 390.468 372.04 389.268 372.568C388.092 373.072 386.712 373.324 385.128 373.324ZM402.981 357.196V366.844C402.981 367.516 403.137 368.008 403.449 368.32C403.785 368.608 404.337 368.752 405.105 368.752H407.445V373H404.277C400.029 373 397.905 370.936 397.905 366.808V357.196H395.529V353.056H397.905V348.124H402.981V353.056H407.445V357.196H402.981ZM409.774 362.956C409.774 360.94 410.17 359.152 410.962 357.592C411.778 356.032 412.87 354.832 414.238 353.992C415.63 353.152 417.178 352.732 418.882 352.732C420.37 352.732 421.666 353.032 422.77 353.632C423.898 354.232 424.798 354.988 425.47 355.9V353.056H430.546V373H425.47V370.084C424.822 371.02 423.922 371.8 422.77 372.424C421.642 373.024 420.334 373.324 418.846 373.324C417.166 373.324 415.63 372.892 414.238 372.028C412.87 371.164 411.778 369.952 410.962 368.392C410.17 366.808 409.774 364.996 409.774 362.956ZM425.47 363.028C425.47 361.804 425.23 360.76 424.75 359.896C424.27 359.008 423.622 358.336 422.806 357.88C421.99 357.4 421.114 357.16 420.178 357.16C419.242 357.16 418.378 357.388 417.586 357.844C416.794 358.3 416.146 358.972 415.642 359.86C415.162 360.724 414.922 361.756 414.922 362.956C414.922 364.156 415.162 365.212 415.642 366.124C416.146 367.012 416.794 367.696 417.586 368.176C418.402 368.656 419.266 368.896 420.178 368.896C421.114 368.896 421.99 368.668 422.806 368.212C423.622 367.732 424.27 367.06 424.75 366.196C425.23 365.308 425.47 364.252 425.47 363.028ZM446.52 352.768C448.896 352.768 450.816 353.524 452.28 355.036C453.744 356.524 454.476 358.612 454.476 361.3V373H449.436V361.984C449.436 360.4 449.04 359.188 448.248 358.348C447.456 357.484 446.376 357.052 445.008 357.052C443.616 357.052 442.512 357.484 441.696 358.348C440.904 359.188 440.508 360.4 440.508 361.984V373H435.468V353.056H440.508V355.54C441.18 354.676 442.032 354.004 443.064 353.524C444.12 353.02 445.272 352.768 446.52 352.768ZM457.973 362.956C457.973 360.94 458.369 359.152 459.161 357.592C459.977 356.032 461.081 354.832 462.473 353.992C463.865 353.152 465.413 352.732 467.117 352.732C468.413 352.732 469.649 353.02 470.825 353.596C472.001 354.148 472.937 354.892 473.633 355.828V346.36H478.745V373H473.633V370.048C473.009 371.032 472.133 371.824 471.005 372.424C469.877 373.024 468.569 373.324 467.081 373.324C465.401 373.324 463.865 372.892 462.473 372.028C461.081 371.164 459.977 369.952 459.161 368.392C458.369 366.808 457.973 364.996 457.973 362.956ZM473.669 363.028C473.669 361.804 473.429 360.76 472.949 359.896C472.469 359.008 471.821 358.336 471.005 357.88C470.189 357.4 469.313 357.16 468.377 357.16C467.441 357.16 466.577 357.388 465.785 357.844C464.993 358.3 464.345 358.972 463.841 359.86C463.361 360.724 463.121 361.756 463.121 362.956C463.121 364.156 463.361 365.212 463.841 366.124C464.345 367.012 464.993 367.696 465.785 368.176C466.601 368.656 467.465 368.896 468.377 368.896C469.313 368.896 470.189 368.668 471.005 368.212C471.821 367.732 472.469 367.06 472.949 366.196C473.429 365.308 473.669 364.252 473.669 363.028ZM163.936 427.324C162.016 427.324 160.288 426.904 158.752 426.064C157.216 425.2 156.004 423.988 155.116 422.428C154.252 420.868 153.82 419.068 153.82 417.028C153.82 414.988 154.264 413.188 155.152 411.628C156.064 410.068 157.3 408.868 158.86 408.028C160.42 407.164 162.16 406.732 164.08 406.732C166 406.732 167.74 407.164 169.3 408.028C170.86 408.868 172.084 410.068 172.972 411.628C173.884 413.188 174.34 414.988 174.34 417.028C174.34 419.068 173.872 420.868 172.936 422.428C172.024 423.988 170.776 425.2 169.192 426.064C167.632 426.904 165.88 427.324 163.936 427.324ZM163.936 422.932C164.848 422.932 165.7 422.716 166.492 422.284C167.308 421.828 167.956 421.156 168.436 420.268C168.916 419.38 169.156 418.3 169.156 417.028C169.156 415.132 168.652 413.68 167.644 412.672C166.66 411.64 165.448 411.124 164.008 411.124C162.568 411.124 161.356 411.64 160.372 412.672C159.412 413.68 158.932 415.132 158.932 417.028C158.932 418.924 159.4 420.388 160.336 421.42C161.296 422.428 162.496 422.932 163.936 422.932ZM196.865 407.056V427H191.789V424.48C191.141 425.344 190.289 426.028 189.233 426.532C188.201 427.012 187.073 427.252 185.849 427.252C184.289 427.252 182.909 426.928 181.709 426.28C180.509 425.608 179.561 424.636 178.865 423.364C178.193 422.068 177.857 420.532 177.857 418.756V407.056H182.897V418.036C182.897 419.62 183.293 420.844 184.085 421.708C184.877 422.548 185.957 422.968 187.325 422.968C188.717 422.968 189.809 422.548 190.601 421.708C191.393 420.844 191.789 419.62 191.789 418.036V407.056H196.865ZM207.706 411.196V420.844C207.706 421.516 207.862 422.008 208.174 422.32C208.51 422.608 209.062 422.752 209.83 422.752H212.17V427H209.002C204.754 427 202.63 424.936 202.63 420.808V411.196H200.254V407.056H202.63V402.124H207.706V407.056H212.17V411.196H207.706ZM223.077 416.956C223.077 414.94 223.473 413.152 224.265 411.592C225.081 410.032 226.173 408.832 227.541 407.992C228.933 407.152 230.481 406.732 232.185 406.732C233.673 406.732 234.969 407.032 236.073 407.632C237.201 408.232 238.101 408.988 238.773 409.9V407.056H243.849V427H238.773V424.084C238.125 425.02 237.225 425.8 236.073 426.424C234.945 427.024 233.637 427.324 232.149 427.324C230.469 427.324 228.933 426.892 227.541 426.028C226.173 425.164 225.081 423.952 224.265 422.392C223.473 420.808 223.077 418.996 223.077 416.956ZM238.773 417.028C238.773 415.804 238.533 414.76 238.053 413.896C237.573 413.008 236.925 412.336 236.109 411.88C235.293 411.4 234.417 411.16 233.481 411.16C232.545 411.16 231.681 411.388 230.889 411.844C230.097 412.3 229.449 412.972 228.945 413.86C228.465 414.724 228.225 415.756 228.225 416.956C228.225 418.156 228.465 419.212 228.945 420.124C229.449 421.012 230.097 421.696 230.889 422.176C231.705 422.656 232.569 422.896 233.481 422.896C234.417 422.896 235.293 422.668 236.109 422.212C236.925 421.732 237.573 421.06 238.053 420.196C238.533 419.308 238.773 418.252 238.773 417.028ZM259.823 406.768C262.199 406.768 264.119 407.524 265.583 409.036C267.047 410.524 267.779 412.612 267.779 415.3V427H262.739V415.984C262.739 414.4 262.343 413.188 261.551 412.348C260.759 411.484 259.679 411.052 258.311 411.052C256.919 411.052 255.815 411.484 254.999 412.348C254.207 413.188 253.811 414.4 253.811 415.984V427H248.771V407.056H253.811V409.54C254.483 408.676 255.335 408.004 256.367 407.524C257.423 407.02 258.575 406.768 259.823 406.768ZM271.276 416.956C271.276 414.94 271.672 413.152 272.464 411.592C273.28 410.032 274.384 408.832 275.776 407.992C277.168 407.152 278.716 406.732 280.42 406.732C281.716 406.732 282.952 407.02 284.128 407.596C285.304 408.148 286.24 408.892 286.936 409.828V400.36H292.048V427H286.936V424.048C286.312 425.032 285.436 425.824 284.308 426.424C283.18 427.024 281.872 427.324 280.384 427.324C278.704 427.324 277.168 426.892 275.776 426.028C274.384 425.164 273.28 423.952 272.464 422.392C271.672 420.808 271.276 418.996 271.276 416.956ZM286.972 417.028C286.972 415.804 286.732 414.76 286.252 413.896C285.772 413.008 285.124 412.336 284.308 411.88C283.492 411.4 282.616 411.16 281.68 411.16C280.744 411.16 279.88 411.388 279.088 411.844C278.296 412.3 277.648 412.972 277.144 413.86C276.664 414.724 276.424 415.756 276.424 416.956C276.424 418.156 276.664 419.212 277.144 420.124C277.648 421.012 278.296 421.696 279.088 422.176C279.904 422.656 280.768 422.896 281.68 422.896C282.616 422.896 283.492 422.668 284.308 422.212C285.124 421.732 285.772 421.06 286.252 420.196C286.732 419.308 286.972 418.252 286.972 417.028ZM330.316 406.768C332.764 406.768 334.732 407.524 336.22 409.036C337.732 410.524 338.488 412.612 338.488 415.3V427H333.448V415.984C333.448 414.424 333.052 413.236 332.26 412.42C331.468 411.58 330.388 411.16 329.02 411.16C327.652 411.16 326.56 411.58 325.744 412.42C324.952 413.236 324.556 414.424 324.556 415.984V427H319.516V415.984C319.516 414.424 319.12 413.236 318.328 412.42C317.536 411.58 316.456 411.16 315.088 411.16C313.696 411.16 312.592 411.58 311.776 412.42C310.984 413.236 310.588 414.424 310.588 415.984V427H305.548V407.056H310.588V409.468C311.236 408.628 312.064 407.968 313.072 407.488C314.104 407.008 315.232 406.768 316.456 406.768C318.016 406.768 319.408 407.104 320.632 407.776C321.856 408.424 322.804 409.36 323.476 410.584C324.124 409.432 325.06 408.508 326.284 407.812C327.532 407.116 328.876 406.768 330.316 406.768ZM341.975 416.956C341.975 414.94 342.371 413.152 343.163 411.592C343.979 410.032 345.071 408.832 346.439 407.992C347.831 407.152 349.379 406.732 351.083 406.732C352.571 406.732 353.867 407.032 354.971 407.632C356.099 408.232 356.999 408.988 357.671 409.9V407.056H362.747V427H357.671V424.084C357.023 425.02 356.123 425.8 354.971 426.424C353.843 427.024 352.535 427.324 351.047 427.324C349.367 427.324 347.831 426.892 346.439 426.028C345.071 425.164 343.979 423.952 343.163 422.392C342.371 420.808 341.975 418.996 341.975 416.956ZM357.671 417.028C357.671 415.804 357.431 414.76 356.951 413.896C356.471 413.008 355.823 412.336 355.007 411.88C354.191 411.4 353.315 411.16 352.379 411.16C351.443 411.16 350.579 411.388 349.787 411.844C348.995 412.3 348.347 412.972 347.843 413.86C347.363 414.724 347.123 415.756 347.123 416.956C347.123 418.156 347.363 419.212 347.843 420.124C348.347 421.012 348.995 421.696 349.787 422.176C350.603 422.656 351.467 422.896 352.379 422.896C353.315 422.896 354.191 422.668 355.007 422.212C355.823 421.732 356.471 421.06 356.951 420.196C357.431 419.308 357.671 418.252 357.671 417.028ZM379.478 427L372.71 418.504V427H367.67V400.36H372.71V415.516L379.406 407.056H385.958L377.174 417.064L386.03 427H379.478ZM407.233 416.596C407.233 417.316 407.185 417.964 407.089 418.54H392.509C392.629 419.98 393.133 421.108 394.021 421.924C394.909 422.74 396.001 423.148 397.297 423.148C399.169 423.148 400.501 422.344 401.293 420.736H406.729C406.153 422.656 405.049 424.24 403.417 425.488C401.785 426.712 399.781 427.324 397.405 427.324C395.485 427.324 393.757 426.904 392.221 426.064C390.709 425.2 389.521 423.988 388.657 422.428C387.817 420.868 387.397 419.068 387.397 417.028C387.397 414.964 387.817 413.152 388.657 411.592C389.497 410.032 390.673 408.832 392.185 407.992C393.697 407.152 395.437 406.732 397.405 406.732C399.301 406.732 400.993 407.14 402.481 407.956C403.993 408.772 405.157 409.936 405.973 411.448C406.813 412.936 407.233 414.652 407.233 416.596ZM402.013 415.156C401.989 413.86 401.521 412.828 400.609 412.06C399.697 411.268 398.581 410.872 397.261 410.872C396.013 410.872 394.957 411.256 394.093 412.024C393.253 412.768 392.737 413.812 392.545 415.156H402.013ZM418.194 416.956C418.194 414.94 418.59 413.152 419.382 411.592C420.198 410.032 421.29 408.832 422.658 407.992C424.05 407.152 425.598 406.732 427.302 406.732C428.79 406.732 430.086 407.032 431.19 407.632C432.318 408.232 433.218 408.988 433.89 409.9V407.056H438.966V427H433.89V424.084C433.242 425.02 432.342 425.8 431.19 426.424C430.062 427.024 428.754 427.324 427.266 427.324C425.586 427.324 424.05 426.892 422.658 426.028C421.29 425.164 420.198 423.952 419.382 422.392C418.59 420.808 418.194 418.996 418.194 416.956ZM433.89 417.028C433.89 415.804 433.65 414.76 433.17 413.896C432.69 413.008 432.042 412.336 431.226 411.88C430.41 411.4 429.534 411.16 428.598 411.16C427.662 411.16 426.798 411.388 426.006 411.844C425.214 412.3 424.566 412.972 424.062 413.86C423.582 414.724 423.342 415.756 423.342 416.956C423.342 418.156 423.582 419.212 424.062 420.124C424.566 421.012 425.214 421.696 426.006 422.176C426.822 422.656 427.686 422.896 428.598 422.896C429.534 422.896 430.41 422.668 431.226 422.212C432.042 421.732 432.69 421.06 433.17 420.196C433.65 419.308 433.89 418.252 433.89 417.028ZM205.235 470.956C205.235 468.94 205.631 467.152 206.423 465.592C207.239 464.032 208.343 462.832 209.735 461.992C211.127 461.152 212.675 460.732 214.379 460.732C215.675 460.732 216.911 461.02 218.087 461.596C219.263 462.148 220.199 462.892 220.895 463.828V454.36H226.007V481H220.895V478.048C220.271 479.032 219.395 479.824 218.267 480.424C217.139 481.024 215.831 481.324 214.343 481.324C212.663 481.324 211.127 480.892 209.735 480.028C208.343 479.164 207.239 477.952 206.423 476.392C205.631 474.808 205.235 472.996 205.235 470.956ZM220.931 471.028C220.931 469.804 220.691 468.76 220.211 467.896C219.731 467.008 219.083 466.336 218.267 465.88C217.451 465.4 216.575 465.16 215.639 465.16C214.703 465.16 213.839 465.388 213.047 465.844C212.255 466.3 211.607 466.972 211.103 467.86C210.623 468.724 210.383 469.756 210.383 470.956C210.383 472.156 210.623 473.212 211.103 474.124C211.607 475.012 212.255 475.696 213.047 476.176C213.863 476.656 214.727 476.896 215.639 476.896C216.575 476.896 217.451 476.668 218.267 476.212C219.083 475.732 219.731 475.06 220.211 474.196C220.691 473.308 220.931 472.252 220.931 471.028ZM233.485 458.68C232.597 458.68 231.853 458.404 231.253 457.852C230.677 457.276 230.389 456.568 230.389 455.728C230.389 454.888 230.677 454.192 231.253 453.64C231.853 453.064 232.597 452.776 233.485 452.776C234.373 452.776 235.105 453.064 235.681 453.64C236.281 454.192 236.581 454.888 236.581 455.728C236.581 456.568 236.281 457.276 235.681 457.852C235.105 458.404 234.373 458.68 233.485 458.68ZM235.969 461.056V481H230.929V461.056H235.969ZM250.093 465.196H246.601V481H241.489V465.196H239.221V461.056H241.489V460.048C241.489 457.6 242.185 455.8 243.577 454.648C244.969 453.496 247.069 452.956 249.877 453.028V457.276C248.653 457.252 247.801 457.456 247.321 457.888C246.841 458.32 246.601 459.1 246.601 460.228V461.056H250.093V465.196ZM262.503 465.196H259.011V481H253.899V465.196H251.631V461.056H253.899V460.048C253.899 457.6 254.595 455.8 255.987 454.648C257.379 453.496 259.479 452.956 262.287 453.028V457.276C261.063 457.252 260.211 457.456 259.731 457.888C259.251 458.32 259.011 459.1 259.011 460.228V461.056H262.503V465.196ZM284.309 470.596C284.309 471.316 284.261 471.964 284.165 472.54H269.585C269.705 473.98 270.209 475.108 271.097 475.924C271.985 476.74 273.077 477.148 274.373 477.148C276.245 477.148 277.577 476.344 278.369 474.736H283.805C283.229 476.656 282.125 478.24 280.493 479.488C278.861 480.712 276.857 481.324 274.481 481.324C272.561 481.324 270.833 480.904 269.297 480.064C267.785 479.2 266.597 477.988 265.733 476.428C264.893 474.868 264.473 473.068 264.473 471.028C264.473 468.964 264.893 467.152 265.733 465.592C266.573 464.032 267.749 462.832 269.261 461.992C270.773 461.152 272.513 460.732 274.481 460.732C276.377 460.732 278.069 461.14 279.557 461.956C281.069 462.772 282.233 463.936 283.049 465.448C283.889 466.936 284.309 468.652 284.309 470.596ZM279.089 469.156C279.065 467.86 278.597 466.828 277.685 466.06C276.773 465.268 275.657 464.872 274.337 464.872C273.089 464.872 272.033 465.256 271.169 466.024C270.329 466.768 269.813 467.812 269.621 469.156H279.089ZM293.028 464.152C293.676 463.096 294.516 462.268 295.548 461.668C296.604 461.068 297.804 460.768 299.148 460.768V466.06H297.816C296.232 466.06 295.032 466.432 294.216 467.176C293.424 467.92 293.028 469.216 293.028 471.064V481H287.988V461.056H293.028V464.152ZM321.083 470.596C321.083 471.316 321.035 471.964 320.939 472.54H306.359C306.479 473.98 306.983 475.108 307.871 475.924C308.759 476.74 309.851 477.148 311.147 477.148C313.019 477.148 314.351 476.344 315.143 474.736H320.579C320.003 476.656 318.899 478.24 317.267 479.488C315.635 480.712 313.631 481.324 311.255 481.324C309.335 481.324 307.607 480.904 306.071 480.064C304.559 479.2 303.371 477.988 302.507 476.428C301.667 474.868 301.247 473.068 301.247 471.028C301.247 468.964 301.667 467.152 302.507 465.592C303.347 464.032 304.523 462.832 306.035 461.992C307.547 461.152 309.287 460.732 311.255 460.732C313.151 460.732 314.843 461.14 316.331 461.956C317.843 462.772 319.007 463.936 319.823 465.448C320.663 466.936 321.083 468.652 321.083 470.596ZM315.863 469.156C315.839 467.86 315.371 466.828 314.459 466.06C313.547 465.268 312.431 464.872 311.111 464.872C309.863 464.872 308.807 465.256 307.943 466.024C307.103 466.768 306.587 467.812 306.395 469.156H315.863ZM335.813 460.768C338.189 460.768 340.109 461.524 341.573 463.036C343.037 464.524 343.769 466.612 343.769 469.3V481H338.729V469.984C338.729 468.4 338.333 467.188 337.541 466.348C336.749 465.484 335.669 465.052 334.301 465.052C332.909 465.052 331.805 465.484 330.989 466.348C330.197 467.188 329.801 468.4 329.801 469.984V481H324.761V461.056H329.801V463.54C330.473 462.676 331.325 462.004 332.357 461.524C333.413 461.02 334.565 460.768 335.813 460.768ZM347.266 471.028C347.266 468.964 347.686 467.164 348.526 465.628C349.366 464.068 350.53 462.868 352.018 462.028C353.506 461.164 355.21 460.732 357.13 460.732C359.602 460.732 361.642 461.356 363.25 462.604C364.882 463.828 365.974 465.556 366.526 467.788H361.09C360.802 466.924 360.31 466.252 359.614 465.772C358.942 465.268 358.102 465.016 357.094 465.016C355.654 465.016 354.514 465.544 353.674 466.6C352.834 467.632 352.414 469.108 352.414 471.028C352.414 472.924 352.834 474.4 353.674 475.456C354.514 476.488 355.654 477.004 357.094 477.004C359.134 477.004 360.466 476.092 361.09 474.268H366.526C365.974 476.428 364.882 478.144 363.25 479.416C361.618 480.688 359.578 481.324 357.13 481.324C355.21 481.324 353.506 480.904 352.018 480.064C350.53 479.2 349.366 478 348.526 476.464C347.686 474.904 347.266 473.092 347.266 471.028ZM388.758 470.596C388.758 471.316 388.71 471.964 388.614 472.54H374.034C374.154 473.98 374.658 475.108 375.546 475.924C376.434 476.74 377.526 477.148 378.822 477.148C380.694 477.148 382.026 476.344 382.818 474.736H388.254C387.678 476.656 386.574 478.24 384.942 479.488C383.31 480.712 381.306 481.324 378.93 481.324C377.01 481.324 375.282 480.904 373.746 480.064C372.234 479.2 371.046 477.988 370.182 476.428C369.342 474.868 368.922 473.068 368.922 471.028C368.922 468.964 369.342 467.152 370.182 465.592C371.022 464.032 372.198 462.832 373.71 461.992C375.222 461.152 376.962 460.732 378.93 460.732C380.826 460.732 382.518 461.14 384.006 461.956C385.518 462.772 386.682 463.936 387.498 465.448C388.338 466.936 388.758 468.652 388.758 470.596ZM383.538 469.156C383.514 467.86 383.046 466.828 382.134 466.06C381.222 465.268 380.106 464.872 378.786 464.872C377.538 464.872 376.482 465.256 375.618 466.024C374.778 466.768 374.262 467.812 374.07 469.156H383.538Z" fill="#4A4848" />
	<rect x="325.5" y="555.5" width="182" height="51" rx="4.5" fill="white" stroke="#2A2929" />
	<rect x="109" y="555" width="183" height="52" rx="5" fill="url(#paint0_linear_330_16)" />
	<path d="M154.375 578.24C154.055 577.653 153.615 577.207 153.055 576.9C152.495 576.593 151.842 576.44 151.095 576.44C150.269 576.44 149.535 576.627 148.895 577C148.255 577.373 147.755 577.907 147.395 578.6C147.035 579.293 146.855 580.093 146.855 581C146.855 581.933 147.035 582.747 147.395 583.44C147.769 584.133 148.282 584.667 148.935 585.04C149.589 585.413 150.349 585.6 151.215 585.6C152.282 585.6 153.155 585.32 153.835 584.76C154.515 584.187 154.962 583.393 155.175 582.38H150.375V580.24H157.935V582.68C157.749 583.653 157.349 584.553 156.735 585.38C156.122 586.207 155.329 586.873 154.355 587.38C153.395 587.873 152.315 588.12 151.115 588.12C149.769 588.12 148.549 587.82 147.455 587.22C146.375 586.607 145.522 585.76 144.895 584.68C144.282 583.6 143.975 582.373 143.975 581C143.975 579.627 144.282 578.4 144.895 577.32C145.522 576.227 146.375 575.38 147.455 574.78C148.549 574.167 149.762 573.86 151.095 573.86C152.669 573.86 154.035 574.247 155.195 575.02C156.355 575.78 157.155 576.853 157.595 578.24H154.375ZM170.307 582.22C170.307 582.62 170.28 582.98 170.227 583.3H162.127C162.194 584.1 162.474 584.727 162.967 585.18C163.46 585.633 164.067 585.86 164.787 585.86C165.827 585.86 166.567 585.413 167.007 584.52H170.027C169.707 585.587 169.094 586.467 168.187 587.16C167.28 587.84 166.167 588.18 164.847 588.18C163.78 588.18 162.82 587.947 161.967 587.48C161.127 587 160.467 586.327 159.987 585.46C159.52 584.593 159.287 583.593 159.287 582.46C159.287 581.313 159.52 580.307 159.987 579.44C160.454 578.573 161.107 577.907 161.947 577.44C162.787 576.973 163.754 576.74 164.847 576.74C165.9 576.74 166.84 576.967 167.667 577.42C168.507 577.873 169.154 578.52 169.607 579.36C170.074 580.187 170.307 581.14 170.307 582.22ZM167.407 581.42C167.394 580.7 167.134 580.127 166.627 579.7C166.12 579.26 165.5 579.04 164.767 579.04C164.074 579.04 163.487 579.253 163.007 579.68C162.54 580.093 162.254 580.673 162.147 581.42H167.407ZM175.611 579.22V584.58C175.611 584.953 175.697 585.227 175.871 585.4C176.057 585.56 176.364 585.64 176.791 585.64H178.091V588H176.331C173.971 588 172.791 586.853 172.791 584.56V579.22H171.471V576.92H172.791V574.18H175.611V576.92H178.091V579.22H175.611ZM189.69 588.14C188.717 588.14 187.837 587.973 187.05 587.64C186.277 587.307 185.664 586.827 185.21 586.2C184.757 585.573 184.524 584.833 184.51 583.98H187.51C187.55 584.553 187.75 585.007 188.11 585.34C188.484 585.673 188.99 585.84 189.63 585.84C190.284 585.84 190.797 585.687 191.17 585.38C191.544 585.06 191.73 584.647 191.73 584.14C191.73 583.727 191.604 583.387 191.35 583.12C191.097 582.853 190.777 582.647 190.39 582.5C190.017 582.34 189.497 582.167 188.83 581.98C187.924 581.713 187.184 581.453 186.61 581.2C186.05 580.933 185.564 580.54 185.15 580.02C184.75 579.487 184.55 578.78 184.55 577.9C184.55 577.073 184.757 576.353 185.17 575.74C185.584 575.127 186.164 574.66 186.91 574.34C187.657 574.007 188.51 573.84 189.47 573.84C190.91 573.84 192.077 574.193 192.97 574.9C193.877 575.593 194.377 576.567 194.47 577.82H191.39C191.364 577.34 191.157 576.947 190.77 576.64C190.397 576.32 189.897 576.16 189.27 576.16C188.724 576.16 188.284 576.3 187.95 576.58C187.63 576.86 187.47 577.267 187.47 577.8C187.47 578.173 187.59 578.487 187.83 578.74C188.084 578.98 188.39 579.18 188.75 579.34C189.124 579.487 189.644 579.66 190.31 579.86C191.217 580.127 191.957 580.393 192.53 580.66C193.104 580.927 193.597 581.327 194.01 581.86C194.424 582.393 194.63 583.093 194.63 583.96C194.63 584.707 194.437 585.4 194.05 586.04C193.664 586.68 193.097 587.193 192.35 587.58C191.604 587.953 190.717 588.14 189.69 588.14ZM200.318 579.22V584.58C200.318 584.953 200.404 585.227 200.578 585.4C200.764 585.56 201.071 585.64 201.498 585.64H202.798V588H201.038C198.678 588 197.498 586.853 197.498 584.56V579.22H196.178V576.92H197.498V574.18H200.318V576.92H202.798V579.22H200.318ZM204.092 582.42C204.092 581.3 204.312 580.307 204.752 579.44C205.205 578.573 205.812 577.907 206.572 577.44C207.345 576.973 208.205 576.74 209.152 576.74C209.978 576.74 210.698 576.907 211.312 577.24C211.938 577.573 212.438 577.993 212.812 578.5V576.92H215.632V588H212.812V586.38C212.452 586.9 211.952 587.333 211.312 587.68C210.685 588.013 209.958 588.18 209.132 588.18C208.198 588.18 207.345 587.94 206.572 587.46C205.812 586.98 205.205 586.307 204.752 585.44C204.312 584.56 204.092 583.553 204.092 582.42ZM212.812 582.46C212.812 581.78 212.678 581.2 212.412 580.72C212.145 580.227 211.785 579.853 211.332 579.6C210.878 579.333 210.392 579.2 209.872 579.2C209.352 579.2 208.872 579.327 208.432 579.58C207.992 579.833 207.632 580.207 207.352 580.7C207.085 581.18 206.952 581.753 206.952 582.42C206.952 583.087 207.085 583.673 207.352 584.18C207.632 584.673 207.992 585.053 208.432 585.32C208.885 585.587 209.365 585.72 209.872 585.72C210.392 585.72 210.878 585.593 211.332 585.34C211.785 585.073 212.145 584.7 212.412 584.22C212.678 583.727 212.812 583.14 212.812 582.46ZM221.166 578.64C221.526 578.053 221.993 577.593 222.566 577.26C223.153 576.927 223.82 576.76 224.566 576.76V579.7H223.826C222.946 579.7 222.28 579.907 221.826 580.32C221.386 580.733 221.166 581.453 221.166 582.48V588H218.366V576.92H221.166V578.64ZM229.712 579.22V584.58C229.712 584.953 229.799 585.227 229.972 585.4C230.159 585.56 230.466 585.64 230.892 585.64H232.192V588H230.432C228.072 588 226.892 586.853 226.892 584.56V579.22H225.572V576.92H226.892V574.18H229.712V576.92H232.192V579.22H229.712ZM244.506 582.22C244.506 582.62 244.48 582.98 244.426 583.3H236.326C236.393 584.1 236.673 584.727 237.166 585.18C237.66 585.633 238.266 585.86 238.986 585.86C240.026 585.86 240.766 585.413 241.206 584.52H244.226C243.906 585.587 243.293 586.467 242.386 587.16C241.48 587.84 240.366 588.18 239.046 588.18C237.98 588.18 237.02 587.947 236.166 587.48C235.326 587 234.666 586.327 234.186 585.46C233.72 584.593 233.486 583.593 233.486 582.46C233.486 581.313 233.72 580.307 234.186 579.44C234.653 578.573 235.306 577.907 236.146 577.44C236.986 576.973 237.953 576.74 239.046 576.74C240.1 576.74 241.04 576.967 241.866 577.42C242.706 577.873 243.353 578.52 243.806 579.36C244.273 580.187 244.506 581.14 244.506 582.22ZM241.606 581.42C241.593 580.7 241.333 580.127 240.826 579.7C240.32 579.26 239.7 579.04 238.966 579.04C238.273 579.04 237.686 579.253 237.206 579.68C236.74 580.093 236.453 580.673 236.346 581.42H241.606ZM245.83 582.42C245.83 581.3 246.05 580.307 246.49 579.44C246.943 578.573 247.557 577.907 248.33 577.44C249.103 576.973 249.963 576.74 250.91 576.74C251.63 576.74 252.317 576.9 252.97 577.22C253.623 577.527 254.143 577.94 254.53 578.46V573.2H257.37V588H254.53V586.36C254.183 586.907 253.697 587.347 253.07 587.68C252.443 588.013 251.717 588.18 250.89 588.18C249.957 588.18 249.103 587.94 248.33 587.46C247.557 586.98 246.943 586.307 246.49 585.44C246.05 584.56 245.83 583.553 245.83 582.42ZM254.55 582.46C254.55 581.78 254.417 581.2 254.15 580.72C253.883 580.227 253.523 579.853 253.07 579.6C252.617 579.333 252.13 579.2 251.61 579.2C251.09 579.2 250.61 579.327 250.17 579.58C249.73 579.833 249.37 580.207 249.09 580.7C248.823 581.18 248.69 581.753 248.69 582.42C248.69 583.087 248.823 583.673 249.09 584.18C249.37 584.673 249.73 585.053 250.17 585.32C250.623 585.587 251.103 585.72 251.61 585.72C252.13 585.72 252.617 585.593 253.07 585.34C253.523 585.073 253.883 584.7 254.15 584.22C254.417 583.727 254.55 583.14 254.55 582.46Z" fill="white" />
	<path d="M368.978 588L365.898 582.56H364.578V588H361.778V574.04H367.018C368.098 574.04 369.018 574.233 369.778 574.62C370.538 574.993 371.105 575.507 371.478 576.16C371.865 576.8 372.058 577.52 372.058 578.32C372.058 579.24 371.792 580.073 371.258 580.82C370.725 581.553 369.932 582.06 368.878 582.34L372.218 588H368.978ZM364.578 580.46H366.918C367.678 580.46 368.245 580.28 368.618 579.92C368.992 579.547 369.178 579.033 369.178 578.38C369.178 577.74 368.992 577.247 368.618 576.9C368.245 576.54 367.678 576.36 366.918 576.36H364.578V580.46ZM384.891 582.22C384.891 582.62 384.864 582.98 384.811 583.3H376.711C376.778 584.1 377.058 584.727 377.551 585.18C378.044 585.633 378.651 585.86 379.371 585.86C380.411 585.86 381.151 585.413 381.591 584.52H384.611C384.291 585.587 383.678 586.467 382.771 587.16C381.864 587.84 380.751 588.18 379.431 588.18C378.364 588.18 377.404 587.947 376.551 587.48C375.711 587 375.051 586.327 374.571 585.46C374.104 584.593 373.871 583.593 373.871 582.46C373.871 581.313 374.104 580.307 374.571 579.44C375.038 578.573 375.691 577.907 376.531 577.44C377.371 576.973 378.338 576.74 379.431 576.74C380.484 576.74 381.424 576.967 382.251 577.42C383.091 577.873 383.738 578.52 384.191 579.36C384.658 580.187 384.891 581.14 384.891 582.22ZM381.991 581.42C381.978 580.7 381.718 580.127 381.211 579.7C380.704 579.26 380.084 579.04 379.351 579.04C378.658 579.04 378.071 579.253 377.591 579.68C377.124 580.093 376.838 580.673 376.731 581.42H381.991ZM386.215 582.42C386.215 581.3 386.435 580.307 386.875 579.44C387.328 578.573 387.935 577.907 388.695 577.44C389.468 576.973 390.328 576.74 391.275 576.74C392.101 576.74 392.821 576.907 393.435 577.24C394.061 577.573 394.561 577.993 394.935 578.5V576.92H397.755V588H394.935V586.38C394.575 586.9 394.075 587.333 393.435 587.68C392.808 588.013 392.081 588.18 391.255 588.18C390.321 588.18 389.468 587.94 388.695 587.46C387.935 586.98 387.328 586.307 386.875 585.44C386.435 584.56 386.215 583.553 386.215 582.42ZM394.935 582.46C394.935 581.78 394.801 581.2 394.535 580.72C394.268 580.227 393.908 579.853 393.455 579.6C393.001 579.333 392.515 579.2 391.995 579.2C391.475 579.2 390.995 579.327 390.555 579.58C390.115 579.833 389.755 580.207 389.475 580.7C389.208 581.18 389.075 581.753 389.075 582.42C389.075 583.087 389.208 583.673 389.475 584.18C389.755 584.673 390.115 585.053 390.555 585.32C391.008 585.587 391.488 585.72 391.995 585.72C392.515 585.72 393.001 585.593 393.455 585.34C393.908 585.073 394.268 584.7 394.535 584.22C394.801 583.727 394.935 583.14 394.935 582.46ZM399.769 582.42C399.769 581.3 399.989 580.307 400.429 579.44C400.883 578.573 401.496 577.907 402.269 577.44C403.043 576.973 403.903 576.74 404.849 576.74C405.569 576.74 406.256 576.9 406.909 577.22C407.563 577.527 408.083 577.94 408.469 578.46V573.2H411.309V588H408.469V586.36C408.123 586.907 407.636 587.347 407.009 587.68C406.383 588.013 405.656 588.18 404.829 588.18C403.896 588.18 403.043 587.94 402.269 587.46C401.496 586.98 400.883 586.307 400.429 585.44C399.989 584.56 399.769 583.553 399.769 582.42ZM408.489 582.46C408.489 581.78 408.356 581.2 408.089 580.72C407.823 580.227 407.463 579.853 407.009 579.6C406.556 579.333 406.069 579.2 405.549 579.2C405.029 579.2 404.549 579.327 404.109 579.58C403.669 579.833 403.309 580.207 403.029 580.7C402.763 581.18 402.629 581.753 402.629 582.42C402.629 583.087 402.763 583.673 403.029 584.18C403.309 584.673 403.669 585.053 404.109 585.32C404.563 585.587 405.043 585.72 405.549 585.72C406.069 585.72 406.556 585.593 407.009 585.34C407.463 585.073 407.823 584.7 408.089 584.22C408.356 583.727 408.489 583.14 408.489 582.46ZM434.03 574.04V588H431.23V578.92L427.49 588H425.37L421.61 578.92V588H418.81V574.04H421.99L426.43 584.42L430.87 574.04H434.03ZM441.718 588.18C440.651 588.18 439.691 587.947 438.838 587.48C437.985 587 437.311 586.327 436.818 585.46C436.338 584.593 436.098 583.593 436.098 582.46C436.098 581.327 436.345 580.327 436.838 579.46C437.345 578.593 438.031 577.927 438.898 577.46C439.765 576.98 440.731 576.74 441.798 576.74C442.865 576.74 443.831 576.98 444.698 577.46C445.565 577.927 446.245 578.593 446.738 579.46C447.245 580.327 447.498 581.327 447.498 582.46C447.498 583.593 447.238 584.593 446.718 585.46C446.211 586.327 445.518 587 444.638 587.48C443.771 587.947 442.798 588.18 441.718 588.18ZM441.718 585.74C442.225 585.74 442.698 585.62 443.138 585.38C443.591 585.127 443.951 584.753 444.218 584.26C444.485 583.767 444.618 583.167 444.618 582.46C444.618 581.407 444.338 580.6 443.778 580.04C443.231 579.467 442.558 579.18 441.758 579.18C440.958 579.18 440.285 579.467 439.738 580.04C439.205 580.6 438.938 581.407 438.938 582.46C438.938 583.513 439.198 584.327 439.718 584.9C440.251 585.46 440.918 585.74 441.718 585.74ZM452.352 578.64C452.712 578.053 453.179 577.593 453.752 577.26C454.339 576.927 455.005 576.76 455.752 576.76V579.7H455.012C454.132 579.7 453.465 579.907 453.012 580.32C452.572 580.733 452.352 581.453 452.352 582.48V588H449.552V576.92H452.352V578.64ZM467.938 582.22C467.938 582.62 467.911 582.98 467.858 583.3H459.758C459.824 584.1 460.104 584.727 460.598 585.18C461.091 585.633 461.698 585.86 462.418 585.86C463.458 585.86 464.198 585.413 464.638 584.52H467.658C467.338 585.587 466.724 586.467 465.818 587.16C464.911 587.84 463.798 588.18 462.478 588.18C461.411 588.18 460.451 587.947 459.598 587.48C458.758 587 458.098 586.327 457.618 585.46C457.151 584.593 456.918 583.593 456.918 582.46C456.918 581.313 457.151 580.307 457.618 579.44C458.084 578.573 458.738 577.907 459.578 577.44C460.418 576.973 461.384 576.74 462.478 576.74C463.531 576.74 464.471 576.967 465.298 577.42C466.138 577.873 466.784 578.52 467.238 579.36C467.704 580.187 467.938 581.14 467.938 582.22ZM465.038 581.42C465.024 580.7 464.764 580.127 464.258 579.7C463.751 579.26 463.131 579.04 462.398 579.04C461.704 579.04 461.118 579.253 460.638 579.68C460.171 580.093 459.884 580.673 459.778 581.42H465.038Z" fill="#424242" />
	<rect x="187.459" y="73" width="218.297" height="58" rx="29" fill="#E9E9E9"/>
	

	<circle cx="375" cy="102" r="15" fill="#D0D0D0" />
	<defs>
		<linearGradient id="paint0_linear_330_16" x1="109" y1="581" x2="292" y2="581" gradientUnits="userSpaceOnUse">
			<stop stop-color="#8418AA" />
			<stop offset="1" stop-color="#A749F1" />
		</linearGradient>
	</defs>
</svg>

