<svg width="1635" height="1024" viewBox="0 0 1635 1024" fill="none" xmlns="http://www.w3.org/2000/svg">
<g clip-path="url(#clip0_342_2)">
<rect width="1635" height="1024" fill="url(#paint0_linear_342_2)"/>
<path d="M1557.5 1061.23C1557.5 1062.03 1557.49 1062.64 1557.34 1063.16C1557.2 1063.64 1556.92 1064.06 1556.32 1064.43C1555.7 1064.82 1554.73 1065.17 1553.19 1065.46C1551.66 1065.74 1549.6 1065.97 1546.84 1066.13C1535.77 1066.79 1513.67 1066.5 1469.49 1065.81L1460.53 1065.67C1369.41 1064.26 1193.15 1061.52 852.134 1061.52C470.195 1061.52 278.661 1063.25 182.611 1064.12L182.328 1064.12C134.343 1064.56 110.273 1064.78 98.1966 1064.45C92.1353 1064.29 89.1629 1063.99 87.7064 1063.54C86.9881 1063.31 86.7384 1063.08 86.6331 1062.91C86.5172 1062.71 86.5001 1062.47 86.5 1062.02C86.4521 694.633 417.661 319.5 824.261 319.5C1230.86 319.5 1557.5 693.848 1557.5 1061.23Z" stroke="#DBDBDB"/>
<path d="M1433.5 1043.31C1433.5 1043.97 1433.49 1044.45 1433.37 1044.85C1433.26 1045.22 1433.05 1045.54 1432.57 1045.83C1432.06 1046.14 1431.26 1046.42 1429.98 1046.65C1428.71 1046.89 1427 1047.07 1424.7 1047.2C1415.5 1047.73 1397.11 1047.5 1360.34 1046.94L1352.88 1046.83C1277.06 1045.68 1130.37 1043.45 846.578 1043.45C528.72 1043.45 369.325 1044.86 289.394 1045.57L289.163 1045.57C249.23 1045.92 229.201 1046.1 219.152 1045.83C214.105 1045.7 211.642 1045.46 210.442 1045.09C209.85 1044.91 209.667 1044.73 209.596 1044.62C209.516 1044.49 209.5 1044.33 209.5 1043.95C209.46 745.386 485.047 440.5 823.382 440.5C1161.71 440.5 1433.5 744.748 1433.5 1043.31Z" stroke="#DBDBDB"/>
<path d="M1321.5 1044.59C1321.5 1045.07 1321.49 1045.39 1321.4 1045.65C1321.33 1045.87 1321.18 1046.09 1320.8 1046.29C1320.4 1046.51 1319.76 1046.71 1318.71 1046.88C1317.68 1047.05 1316.29 1047.18 1314.41 1047.28C1306.9 1047.67 1291.89 1047.5 1261.87 1047.09L1255.78 1047.01C1193.89 1046.17 1074.14 1044.55 842.471 1044.55C583.006 1044.55 452.887 1045.58 387.635 1046.09L387.439 1046.09C354.84 1046.35 338.49 1046.48 330.288 1046.29C326.167 1046.19 324.162 1046.01 323.189 1045.75C322.703 1045.62 322.583 1045.49 322.551 1045.44C322.517 1045.39 322.5 1045.33 322.5 1045.05C322.484 936.352 378.678 826.467 469.433 743.744C560.184 661.025 685.459 605.5 823.536 605.5C1099.73 605.5 1321.5 827.169 1321.5 1044.59Z" stroke="#DFDFDF"/>
<path d="M452 501.105C452 495.601 456.675 491 462.618 491H1172.38C1178.33 491 1183 495.601 1183 501.105V1042H452V501.105Z" fill="#FEFEFF" stroke="#B4B0B2" stroke-width="4"/>
<g clip-path="url(#clip1_342_2)">
<path d="M818 830C853.346 830 882 801.346 882 766C882 730.654 853.346 702 818 702C782.654 702 754 730.654 754 766C754 801.346 782.654 830 818 830Z" fill="black"/>
<path d="M807.28 781.944L778.968 769.636V762.82L807.28 750.568V758.596L787.528 766.148L807.28 773.98V781.944Z" fill="white"/>
<path d="M809.899 787.353L820.127 744.645H826.071L815.731 787.353H809.899Z" fill="white"/>
<path d="M828.691 781.977V774.001L848.467 766.225L828.691 758.537V750.621L857.031 762.873V769.633L828.691 781.977Z" fill="white"/>
</g>
<mask id="path-9-inside-1_342_2" fill="white">
<path d="M450 501.8C450 497.32 450 495.079 450.872 493.368C451.639 491.863 452.863 490.639 454.368 489.872C456.079 489 458.32 489 462.8 489H1172.2C1176.68 489 1178.92 489 1180.63 489.872C1182.14 490.639 1183.36 491.863 1184.13 493.368C1185 495.079 1185 497.32 1185 501.8V519H450V501.8Z"/>
</mask>
<path d="M450 501.8C450 497.32 450 495.079 450.872 493.368C451.639 491.863 452.863 490.639 454.368 489.872C456.079 489 458.32 489 462.8 489H1172.2C1176.68 489 1178.92 489 1180.63 489.872C1182.14 490.639 1183.36 491.863 1184.13 493.368C1185 495.079 1185 497.32 1185 501.8V519H450V501.8Z" fill="#EDEFFE"/>
<path d="M446 497C446 490.373 451.373 485 458 485H1177C1183.63 485 1189 490.373 1189 497H1181C1181 494.791 1179.21 493 1177 493H458C455.791 493 454 494.791 454 497H446ZM1185 519H450H1185ZM446 519V497C446 490.373 451.373 485 458 485V493C455.791 493 454 494.791 454 497V519H446ZM1177 485C1183.63 485 1189 490.373 1189 497V519H1181V497C1181 494.791 1179.21 493 1177 493V485Z" fill="#B0B1B4" mask="url(#path-9-inside-1_342_2)"/>
<circle cx="479" cy="505" r="6" fill="#DE3131"/>
<circle cx="499" cy="505" r="6" fill="#B0B1B4"/>
<circle cx="519" cy="505" r="6" fill="#25BB4F"/>
</g>
<defs>
<linearGradient id="paint0_linear_342_2" x1="817.5" y1="0" x2="817.5" y2="1024" gradientUnits="userSpaceOnUse">
<stop stop-color="white"/>
<stop offset="1" stop-color="#FFF5F5" stop-opacity="0.72"/>
</linearGradient>
<clipPath id="clip0_342_2">
<rect width="1635" height="1024" fill="white"/>
</clipPath>
<clipPath id="clip1_342_2">
<rect width="128" height="128" fill="white" transform="translate(754 702)"/>
</clipPath>
</defs>
</svg>
